<svg width="128" height="47" viewBox="0 0 128 47" fill="none" xmlns="http://www.w3.org/2000/svg">
<path d="M85.3046 28.6462C84.834 29.2643 84.0854 30.053 82.9731 30.5858C80.6201 31.6942 77.9891 31.0121 76.556 29.9677C76.1068 29.648 75.8073 29.2856 75.7431 29.2217C75.1228 28.5183 74.695 27.623 74.4811 26.5573H89.5185C89.6255 25.8325 89.6683 25.257 89.6683 24.8094C89.6683 21.9745 88.7913 19.5446 86.9945 17.5623C85.2191 15.5799 82.9517 14.5781 80.1709 14.5781C77.2405 14.5781 74.8661 15.5586 72.9838 17.4983C71.1228 19.4593 70.1816 21.8679 70.1816 24.7668C70.1816 27.7083 71.1228 30.1595 73.0052 32.0779C73.5613 32.6321 74.1602 33.1223 74.8233 33.5273C77.3046 35.0407 79.9784 34.9981 80.449 34.9768C81.3046 34.9555 84.1923 34.8062 86.6308 32.6108C87.572 31.7795 88.1496 30.8842 88.4918 30.2661C87.4865 29.7332 86.3955 29.179 85.3046 28.6462ZM76.3848 19.6511C77.3902 18.7985 78.6522 18.3722 80.1709 18.3722C81.4971 18.3722 82.6736 18.7772 83.6576 19.5659C84.6629 20.3759 85.2832 21.5482 85.5613 23.1255H74.4597C74.7378 21.6761 75.3795 20.5037 76.3848 19.6511Z" fill="#151515"/>
<path d="M37.3262 0H9.83957C4.40642 0 0 4.39093 0 9.80499V37.2163C0 42.6304 4.40642 47.0213 9.83957 47.0213H37.3476C42.7808 47.0213 47.1872 42.6304 47.1872 37.2163V9.80499C47.1658 4.39093 42.7594 0 37.3262 0ZM9.7754 20.0363V11.8939C14.4171 11.8939 18.6524 13.663 21.8396 16.5406C19.9572 18.7361 18.5455 21.3365 17.754 24.1714C15.9786 21.6776 13.0695 20.0363 9.7754 20.0363ZM37.3904 20.0363C32.0214 20.0363 27.6791 24.3846 27.6791 29.7134V35.1061H19.4866V29.7134C19.4866 25.4077 21.0267 21.4431 23.5722 18.3524C26.8663 14.3878 31.8289 11.8726 37.3904 11.8726V20.0363Z" fill="#151515"/>
<path d="M123.936 15.2189H128V34.3813H123.936C123.936 33.6353 123.936 32.8892 123.936 32.1645C123.444 32.6334 122.717 33.2516 121.69 33.7845C119.636 34.8502 117.775 34.8929 117.369 34.8929C114.781 34.8929 112.578 33.9124 110.738 31.9514C108.898 29.9904 108 27.6244 108 24.8108C108 21.9759 108.92 19.5885 110.738 17.6489C111.743 16.5831 112.877 15.7944 114.139 15.3255C115.572 14.7713 116.77 14.75 117.369 14.75C118.203 14.75 120.086 14.75 122.032 15.8797C122.93 16.4126 123.551 17.0094 123.957 17.4357C123.936 16.6684 123.936 15.9437 123.936 15.2189ZM113.733 29.1804C114.866 30.3527 116.278 30.9282 117.989 30.9282C119.701 30.9282 121.112 30.3527 122.246 29.1804C123.38 28.008 123.936 26.5586 123.936 24.7895C123.936 23.0203 123.38 21.5709 122.246 20.3985C121.112 19.2262 119.701 18.6507 117.989 18.6507C116.278 18.6507 114.866 19.2262 113.733 20.3985C112.599 21.5709 112.043 23.0203 112.043 24.7895C112.043 26.5586 112.599 28.008 113.733 29.1804Z" fill="#151515"/>
<path d="M59.2304 23.5086C59.209 23.871 59.209 24.3825 59.2304 24.9793C59.3373 27.5372 59.4443 29.7326 60.9202 31.6936C63.0165 34.4646 66.4389 34.8909 66.7384 34.9335C67.2304 34.9762 67.6368 34.9762 67.9363 34.9762H68.9844V30.905H68.0218C66.7598 30.8837 65.9683 30.436 65.6261 30.2016C63.8935 29.0505 63.594 26.8764 63.5085 26.3648C63.4657 26.1304 63.4229 25.6827 63.4015 25.1925C63.3587 24.4891 63.3587 23.9136 63.3587 23.5086V18.5848H68.9844V14.6202H63.3587V9.334V8.84375C61.9256 9.22742 60.5352 9.73899 59.209 10.3784V23.5086H59.2304Z" fill="#151515"/>
<path d="M104.107 14.8104C102.481 19.4997 100.855 24.2104 99.2298 28.8997C97.9892 26.278 96.7699 23.5283 95.5721 20.6081C94.7592 18.6258 94.032 16.7074 93.3261 14.8104H88.7485C90.6951 19.4358 92.2352 23.1233 93.3902 25.809C94.2031 27.5995 95.0159 29.4113 95.8287 31.2018C95.9571 31.4362 96.1068 31.8412 96.2352 32.3102C96.3849 32.843 96.556 33.5251 96.4277 34.3138C96.1924 35.6353 95.1656 36.424 94.7378 36.7437C93.8394 37.4471 92.8983 37.6816 92.3421 37.7668C92.3421 39.195 92.3421 40.6231 92.3421 42.0512C93.0266 41.9659 93.9678 41.7954 95.0373 41.3478C96.064 40.9215 97.4544 40.1328 98.9731 38.385C100.449 36.7011 101.326 34.9746 102.802 31.2231C104.385 27.1732 105.134 24.6154 106.888 19.4997C107.572 17.4961 108.15 15.8548 108.535 14.7891L104.107 14.8104Z" fill="#151515"/>
<path d="M37.3901 20.0387C32.0211 20.0387 27.6788 24.387 27.6788 29.7158V35.1086H19.4863V29.7158C19.4863 25.4101 21.0264 21.4455 23.5719 18.3548C26.866 14.3902 31.8286 11.875 37.3901 11.875V20.0387Z" fill="#DDE048"/>
<path d="M9.77539 20.033V11.8906C14.4171 11.8906 18.6524 13.6598 21.8396 16.5373C19.9572 18.7328 18.5454 21.3333 17.754 24.1682C15.9786 21.6743 13.0695 20.033 9.77539 20.033Z" fill="white"/>
</svg>
