<svg width="20" height="18" viewBox="0 0 20 18" fill="none" xmlns="http://www.w3.org/2000/svg">
<g clip-path="url(#clip0_11300_115056)">
<path d="M13.7566 13.9324L12.5497 12.7254L15.8921 9.383C16.7741 8.50097 17.2848 7.29399 17.1919 6.13342C17.0991 3.99799 16.0313 2.88385 13.9888 2.69816C12.7818 2.60531 11.5748 3.11596 10.6463 3.99799L7.30391 7.47968L6.09692 6.27269L9.48577 2.88385C10.7856 1.58402 12.5961 0.841255 14.3137 0.980523C17.1919 1.21264 18.8631 2.93027 19.0024 5.90131C19.0952 7.57252 18.3989 9.29016 17.0991 10.59L13.7566 13.9324Z" fill="#05A8E5"/>
<path d="M17.0992 10.6363L9.99654 17.739L8.78955 16.532L15.8922 9.42932" fill="#05A8E5"/>
<path d="M10.6463 4.09065L3.49723 11.2397L2.33667 10.0327L9.43932 2.88367" fill="#05A8E5"/>
<path d="M16.2637 8.64024L15.0567 9.84722L9.30027 4.09083C8.41824 3.2088 7.21126 2.69815 6.0507 2.791C3.91526 2.88384 2.80112 3.95156 2.61543 5.99415C2.56901 7.15472 3.03323 8.40812 3.96168 9.33657L9.7645 15.1394L8.55751 16.3464L2.7547 10.5436C1.45487 9.19731 0.712105 7.38683 0.851373 5.6692C1.08349 2.791 2.84754 1.11979 5.77216 0.98052C7.44337 0.887675 9.16101 1.58401 10.4608 2.88384L16.2637 8.64024Z" fill="#0A1E4A"/>
<path d="M6.09692 16.0826L15.7822 6.39734" stroke="white" stroke-width="0.464225"/>
<path d="M3.7061 7.06189L13.3914 16.7472" stroke="white" stroke-width="0.464225"/>
</g>
<defs>
<clipPath id="clip0_11300_115056">
<rect width="18.1512" height="16.7585" fill="white" transform="translate(0.851074 0.980469)"/>
</clipPath>
</defs>
</svg>
