<svg xmlns="http://www.w3.org/2000/svg" fill-rule="evenodd" stroke-linejoin="round" stroke-miterlimit="2" clip-rule="evenodd" viewBox="0 0 6000 6000"><path fill="#eeeeee" d="m1819.6 810.164 3 15.378 22.23-44.159-50.51 11.616 11.43 4.836-28.89 19.732-98.11-77.577a9.008 9.008 0 0 0-12.7 1.549l-35.45 45.796-24.14-6.106a9.014 9.014 0 0 0-9.06 2.885l-39 45.739c-3.22 3.778-2.77 9.462 1.01 12.683 3.78 3.222 9.47 2.77 12.69-1.008l35.37-41.483 24.42 6.18a9.019 9.019 0 0 0 9.33-3.215l33.5-43.268 96.17 76.044a9.003 9.003 0 0 0 10.66.372l38.05-25.994Z" transform="rotate(-17.071 -7698.57 53682.375) scale(9.68515)" class="coloreee svgShape"/><path fill="#eeeeee" d="M1384.13 1066.23c-26.51-18.53-57.95-37.22-70.22-68.348-9.9-25.107-5.75-53.456 22.86-61.718 17.46-5.041 35.76 1.783 52.95 4.845 24.29 4.327 48.13 4.097 70.45-7.482 24.63-12.774 37.66-34.995 50.95-58.208 8.64-15.085 18.43-34.07 37.77-36.084 46.71-4.863 67.06 71.08 123.88 41.535 51.6-26.834 35.67-95.774 48.52-142.403 8.1-29.422 32.34-51.294 64.39-43.588 13.58 3.269 25.7 10.585 35.51 20.459 7.53 7.589 13.98 16.3 19.01 25.744 35.92 67.465-22.29 113.498-18.43 172.749 2 30.601 43 44.968 39.6 70.931-3.86 29.598-41.34 50.078-37.61 81.768l-439.63-.2Z" transform="translate(-9725.77 -3780.94) scale(7.85524)" class="coloreee svgShape"/><g transform="matrix(8.35511 3.62276 -6.08046 8.38478 -4832.751 -10261.095)" fill="#000000" class="color000 svgShape"><path fill="#4b865b" d="m1797.83 845.251-12.26-10.001s-52.66 41.597-52.66 74.922c0 35.83 29.09 64.92 64.92 64.92 35.85 0 64.92-29.066 64.92-64.92l-12.29-10.001-13.95 10.001c0 21.363-17.32 38.681-38.68 38.681-21.35 0-38.68-17.333-38.68-38.681 0-6.511 1.61-12.647 4.45-18.03 6.48-12.281 19.38-20.652 34.23-20.652v-26.239Z" class="color4b7686 svgShape"/><clipPath id="a"><path d="m1797.83 845.251-12.26-10.001s-52.66 41.597-52.66 74.922c0 35.83 29.09 64.92 64.92 64.92 35.85 0 64.92-29.066 64.92-64.92l-12.29-10.001-13.95 10.001c0 21.363-17.32 38.681-38.68 38.681-21.35 0-38.68-17.333-38.68-38.681 0-6.511 1.61-12.647 4.45-18.03 6.48-12.281 19.38-20.652 34.23-20.652v-26.239Z" fill="#000000" class="color000 svgShape"/></clipPath><g clip-path="url(#a)" fill="#000000" class="color000 svgShape"><path fill="#859cc2" d="m885.616 981.629 18.561 71.871 14.98 16.48 79.083-74.055 6.46-52.121-42.984-21.736-76.1 59.561Z" transform="matrix(.74857 -.11687 .3022 .7001 757.748 289.625)" class="color85b1c2 svgShape"/></g></g><g transform="matrix(8.35511 3.62276 -6.08046 8.38478 -4874.658 -10389.484)" fill="#000000" class="color000 svgShape"><path fill="#4285f4" d="M1797.83 845.251c-35.85 0-64.92 29.066-64.92 64.921 0 35.83 29.09 64.92 64.92 64.92 35.85 0 64.92-29.066 64.92-64.92h-26.24c0 21.363-17.32 38.681-38.68 38.681-21.35 0-38.68-17.333-38.68-38.681 0-21.363 17.32-38.682 38.68-38.682v-26.239Z" class="color6993a4 svgShape"/><clipPath id="b"><path d="M1797.83 845.251c-35.85 0-64.92 29.066-64.92 64.921 0 35.83 29.09 64.92 64.92 64.92 35.85 0 64.92-29.066 64.92-64.92h-26.24c0 21.363-17.32 38.681-38.68 38.681-21.35 0-38.68-17.333-38.68-38.681 0-21.363 17.32-38.682 38.68-38.682v-26.239Z" fill="#000000" class="color000 svgShape"/></clipPath><g clip-path="url(#b)" fill="#000000" class="color000 svgShape"><path fill="#a6bde4" d="m846.865 1069.98 61.966-17.17 81.435-63.757 14.434-45.249-83.743-52.282-74.092 178.458Z" transform="matrix(.74857 -.11687 .3022 .7001 770.041 299.625)" class="colora6d2e4 svgShape"/></g></g><path fill="#002009" d="M1860.47 893.107c-6.56-24.083-26.35-42.271-50.9-46.786l-22.12 43.532 8.53 7.549c3.98.733 10.95 6.094 12.01 10.001l52.48-14.296Z" transform="matrix(8.35511 3.62276 -6.08046 8.38478 -4714.848 -10289.675)" class="color001320 svgShape"/><path fill="#024113" d="M1860.47 893.107c-6.56-24.083-26.35-42.271-50.9-46.786l-9.83 53.491c3.98.733 7.19 3.684 8.25 7.591l52.48-14.296Z" transform="matrix(8.35511 3.62276 -6.08046 8.38478 -4756.755 -10418.064)" class="color023341 svgShape"/><g transform="rotate(1.558 197681.76 -431460.385) scale(9.21534)" fill="#000000" class="color000 svgShape"><path fill="#4285f4" d="M1419.15 930.734c1.22 6.854-54.12 36.679-41 86.656 10.06 38.32 82.95 66.85 125.15 12.93 23.31-29.77-7.28-77.451-5.8-93.527.46-4.977 10.67 1.071 14.71-2.924 5.09-5.033-.59-13.64-4.33-15.896-8.38-5.061-18.49-7.932-27.91-10.287-16.1-4.025-32.95-7.141-49.46-3.646-6.48 1.371-17.88 5.056-21.97 10.733-4.57 6.34 9.48 9.62 10.61 15.961Z" class="color6993a4 svgShape"/><clipPath id="c"><path d="M1419.15 930.734c1.22 6.854-54.12 36.679-41 86.656 10.06 38.32 82.95 66.85 125.15 12.93 23.31-29.77-7.28-77.451-5.8-93.527.46-4.977 10.67 1.071 14.71-2.924 5.09-5.033-.59-13.64-4.33-15.896-8.38-5.061-18.49-7.932-27.91-10.287-16.1-4.025-32.95-7.141-49.46-3.646-6.48 1.371-17.88 5.056-21.97 10.733-4.57 6.34 9.48 9.62 10.61 15.961Z" fill="#000000" class="color000 svgShape"/></clipPath><g clip-path="url(#c)" fill="#000000" class="color000 svgShape"><path fill="#024113" d="M1426.8 893.813c-4.61 1.417-7.34 8.933-4.85 12.927 2.39 3.817 7.26 5.793 11.28 7.322 20.73 7.865 46.26 8.407 67.9 4.605 6.99-1.228 20.14-3.581 21.89-12.182 1.73-8.485-9.21-15.162-15.49-18.082-1.7-.793-3.45-1.49-5.22-2.102-23.53-8.111-52.85-3.785-75.51 7.512Z" transform="matrix(.92028 .06916 -.05337 .71014 156.547 169.734)" class="color023341 svgShape"/><path fill="#4b865b" d="M1527.12 932.778c-10.8.28-24.96 3.924-35.77 4.327-7.13.264-15.3 2.802-22.39 2.018-4.21-.466-8.08.054-12.24-.745-3.71-.713-7.27-1.863-10.82-3.156-1.16-.423-3.53-1.613-4.82-1.043-1.11.494 1.86 3.58 2.18 3.888 3.32 3.291 7.84 5.152 12.31 6.332 6.7 1.769 13.93 1.482 20.79 1.141 9.61-.478 22.75-7.414 29.01.982.91 1.213.74 3.551 1.01 5.023.84 4.556 16.48 63.495-34.39 94.235-7.92 4.78-16.85 8.65-26.17 9.26-7.23.47-14.46-1.06-21.63-2.05-35.09-4.87-50.66-41.88-50.66-48.07-.01-51.006-10.02-5.548-10.52-3.38-2.15 9.4 7.28 26.5 8.79 35.96 1.4 8.79 4.34 17.17 9.19 24.65 18.35 28.26 62.26 33.05 91.45 21.41 8.54-3.41 52.03-12.53 58.32-19.29 20.3-21.83 5.11-104.587-3.64-131.492Z" transform="translate(185.124 127.736) scale(.86779)" class="color4b7686 svgShape"/></g></g><path fill="#ffffff" fill-rule="nonzero" d="M1754.55 918.17c0-2.929-.81-5.261-2.44-6.993-1.62-1.733-4.38-3.332-8.28-4.797-3.89-1.465-7.25-2.921-10.07-4.368-2.83-1.447-5.25-3.108-7.27-4.984a20.055 20.055 0 0 1-4.71-6.619c-1.13-2.536-1.69-5.555-1.69-9.057 0-6.038 1.93-10.986 5.79-14.845 3.86-3.859 8.98-6.109 15.38-6.753v-11.468h8.57v11.629c6.33.893 11.28 3.528 14.85 7.905 3.57 4.377 5.36 10.049 5.36 17.016h-15.49c0-4.288-.89-7.494-2.65-9.62-1.77-2.126-4.14-3.189-7.1-3.189-2.93 0-5.2.831-6.81 2.492-1.61 1.662-2.41 3.957-2.41 6.887 0 2.715.78 4.895 2.36 6.538 1.57 1.644 4.49 3.323 8.76 5.038 4.27 1.715 7.78 3.332 10.53 4.85 2.75 1.518 5.07 3.233 6.97 5.145a19.971 19.971 0 0 1 4.34 6.538c1 2.448 1.5 5.297 1.5 8.548 0 6.074-1.9 11.005-5.68 14.792-3.79 3.787-9.01 6.02-15.65 6.699v10.665h-8.52v-10.612c-7.33-.786-13-3.385-17.02-7.797-4.02-4.413-6.03-10.281-6.03-17.605h15.49c0 4.251 1.01 7.511 3.03 9.78 2.02 2.269 4.92 3.403 8.71 3.403 3.14 0 5.62-.83 7.45-2.492 1.82-1.661 2.73-3.903 2.73-6.726Z" transform="rotate(-29.274 3780.2 19342.41) scale(5.26805)" class="colorfff svgShape"/><path fill="#024113" d="M1508.99 936.272c-1.22 2.899-1.99 5.981-1.76 9.139.65 9.065 8.86 15.079 16.65 18.115 5.92 2.31 13.1 3.863 19.76 6.265-1.48 4.5-3.95 8.816-6.4 13.559-1.71 3.312-3.99 7.689-4.77 11.976-.6 3.29-.35 6.534 1.34 9.354 1.91 3.21 5.05 4.89 8.59 5.43 4.8.72 10.35-.77 13.92-3.03 9.17-5.79 13.33-18.203 7.85-27.951-3.29-5.863-8.61-9.589-14.71-12.282.76-4.039.7-8.293-.65-13.07-.37-1.296-1.74-2.055-3.06-1.693-1.32.362-2.09 1.709-1.72 3.005 1.02 3.59 1.17 6.839.74 9.918-6.45-2.268-13.35-3.787-19.07-6.015-6.14-2.395-13.01-6.777-13.53-13.927-.26-3.587 1.26-7.01 2.96-10.101.27-.51.82-1.094 1.25-1.685.53-.71.93-1.438 1.12-2.091.32-1.113-.1-1.781-.34-2.129-.51-.728-1.27-1.211-2.43-1.044-.24.033-.55.11-.9.296-.26.14-.89.714-1.18.932-.53.391-1.1.698-1.69.985-2.06.999-4.27 1.711-6.48 2.256-7.1 1.745-14.41 2.601-21.7 2.866-11.66.423-43.02-2.862-56.67-6.772-1.32-.378-2.68-.938-3.65-1.376.54-.701.68-1.67.27-2.522-.58-1.218-2.06-1.742-3.3-1.169-2.65 1.229-3.22 2.945-3.07 4.216.14 1.098 1.04 2.524 3.18 3.625 9.26 4.759 49.63 9.373 63.42 8.873 7.64-.277 15.29-1.181 22.72-3.009 1.11-.273 2.22-.585 3.31-.944Zm39.19 35.358c-1.58 4.6-4.01 9.076-6.52 13.93-1.28 2.486-2.96 5.623-3.88 8.837-.78 2.71-1.08 5.485.31 7.813 1.43 2.4 4.1 3.19 6.85 3.2 3.14.02 6.44-1.01 8.7-2.43 7.06-4.46 10.41-13.985 6.19-21.493-2.62-4.672-6.84-7.646-11.65-9.857Z" transform="matrix(7.85979 .21384 -.21749 7.99404 -9797.172 -4307.528)" class="color023341 svgShape"/><path fill="#ffffff" d="M1456.65 951.799c-22.7 0-41.14 18.432-41.14 41.135 0 22.706 18.44 41.136 41.14 41.136s41.13-18.43 41.13-41.136c0-22.703-18.43-41.135-41.13-41.135Zm0 2.439c21.36 0 38.69 17.339 38.69 38.696 0 21.356-17.33 38.696-38.69 38.696s-38.7-17.34-38.7-38.696c0-21.357 17.34-38.696 38.7-38.696Z" transform="rotate(1.558 152809.031 -372027.289) scale(7.997)" class="colorfff svgShape"/><g transform="matrix(-6.5462 -.72363 -.72363 6.5462 14285.8 -2344.728)" fill="#000000" class="color000 svgShape"><path fill="#4285f4" d="M1826.95 1063.05c.53-6.86 2.82-13.69 4.99-20.17 5.79-17.25 14.13-32.74 28.91-43.864 7.18-5.402 16.92-10.461 26.23-9.185 4.41.603 9.33 3.149 9.11 8.246-.38 9.113-11.31 16.233-17.99 20.663-16.32 10.83-46.62 22.56-51.25 44.31Z" class="color6993a4 svgShape"/><clipPath id="d"><path d="M1826.95 1063.05c.53-6.86 2.82-13.69 4.99-20.17 5.79-17.25 14.13-32.74 28.91-43.864 7.18-5.402 16.92-10.461 26.23-9.185 4.41.603 9.33 3.149 9.11 8.246-.38 9.113-11.31 16.233-17.99 20.663-16.32 10.83-46.62 22.56-51.25 44.31Z" fill="#000000" class="color000 svgShape"/></clipPath><g clip-path="url(#d)" fill="#000000" class="color000 svgShape"><path fill="#34a853" d="M1855.6 999.788c1.04 2.592.6 5.662.06 8.312-.48 2.39-1.15 4.82-2.38 6.94-4.46 7.66-13.84 10.88-22.14 12.14-3.75.57-9.76.95-12.7-2.13-2.02-2.12-.56-4.16-.44-6.54.03-.63-.47-.78-1-.62-2.87.84-5.33 4.93-6.87 7.2-4.62 6.85-7.57 15.14-8.79 23.29-.43 2.87-1.07 6.88.78 9.42 2.32 3.19 7.6.75 10.29-.51.78-.37 1.56-.76 2.33-1.16.89-.46 1.78-.94 2.65-1.42 1.37-.75 2.71-1.55 4.04-2.35 8.13-4.86 46.98-25.05 52.1-34.6 5.34-9.97-8.7-14.59-17.93-17.972Z" transform="translate(-337.245 -216.062) scale(1.20146)" class="color477282 svgShape"/></g></g><g transform="rotate(6.308 40434.851 -89591.941) scale(6.58608)" fill="#000000" class="color000 svgShape"><path fill="#4285f4" d="M1826.95 1063.05c.53-6.86 2.82-13.69 4.99-20.17 5.79-17.25 14.13-32.74 28.91-43.864 7.18-5.402 16.92-10.461 26.23-9.185 4.41.603 9.33 3.149 9.11 8.246-.38 9.113-11.31 16.233-17.99 20.663-16.32 10.83-46.62 22.56-51.25 44.31Z" class="color6993a4 svgShape"/><clipPath id="e"><path d="M1826.95 1063.05c.53-6.86 2.82-13.69 4.99-20.17 5.79-17.25 14.13-32.74 28.91-43.864 7.18-5.402 16.92-10.461 26.23-9.185 4.41.603 9.33 3.149 9.11 8.246-.38 9.113-11.31 16.233-17.99 20.663-16.32 10.83-46.62 22.56-51.25 44.31Z" fill="#000000" class="color000 svgShape"/></clipPath><g clip-path="url(#e)" fill="#000000" class="color000 svgShape"><path fill="#34a853" d="M1855.6 999.788c1.04 2.592.6 5.662.06 8.312-.48 2.39-1.15 4.82-2.38 6.94-4.46 7.66-13.84 10.88-22.14 12.14-3.75.57-9.76.95-12.7-2.13-2.02-2.12-.56-4.16-.44-6.54.03-.63-.47-.78-1-.62-2.87.84-5.33 4.93-6.87 7.2-4.62 6.85-7.57 15.14-8.79 23.29-.43 2.87-1.07 6.88.78 9.42 2.32 3.19 7.6.75 10.29-.51.78-.37 1.56-.76 2.33-1.16.89-.46 1.78-.94 2.65-1.42 1.37-.75 2.71-1.55 4.04-2.35 8.13-4.86 46.98-25.05 52.1-34.6 5.34-9.97-8.7-14.59-17.93-17.972Z" transform="translate(-337.245 -216.062) scale(1.20146)" class="color477282 svgShape"/></g></g><g transform="rotate(-173.692 9108.95 -2485.555) scale(8.7369 -8.50039)" fill="#000000" class="color000 svgShape"><path fill="#4285f4" d="M1830.61 1062.95c-.26-10.01-.87-20.78.25-31.11 1.07-9.78 3.69-19.17 9.96-26.97 6.79-8.459 16.47-13.765 25.14-19.935 9.65-6.873 18.1-14.74 21.35-27.711.99-3.91 1.36-7.975.98-11.995-.41-4.286-1.79-8.419-3.64-12.283-.89-1.862-3.09-2.627-4.9-1.709-1.81.918-2.56 3.175-1.66 5.036 1.46 3.054 2.59 6.308 2.92 9.696.3 3.143-.01 6.319-.78 9.376-2.78 11.05-10.21 17.553-18.44 23.408-9.21 6.558-19.4 12.339-26.62 21.327-14.03 17.48-12.43 41.85-11.88 63.07.06 2.08 1.74 3.72 3.76 3.66 2.02-.05 3.61-1.78 3.56-3.86Z" class="color6993a4 svgShape"/><clipPath id="f"><path d="M1830.61 1062.95c-.26-10.01-.87-20.78.25-31.11 1.07-9.78 3.69-19.17 9.96-26.97 6.79-8.459 16.47-13.765 25.14-19.935 9.65-6.873 18.1-14.74 21.35-27.711.99-3.91 1.36-7.975.98-11.995-.41-4.286-1.79-8.419-3.64-12.283-.89-1.862-3.09-2.627-4.9-1.709-1.81.918-2.56 3.175-1.66 5.036 1.46 3.054 2.59 6.308 2.92 9.696.3 3.143-.01 6.319-.78 9.376-2.78 11.05-10.21 17.553-18.44 23.408-9.21 6.558-19.4 12.339-26.62 21.327-14.03 17.48-12.43 41.85-11.88 63.07.06 2.08 1.74 3.72 3.76 3.66 2.02-.05 3.61-1.78 3.56-3.86Z" fill="#000000" class="color000 svgShape"/></clipPath><g clip-path="url(#f)" fill="#000000" class="color000 svgShape"><path fill="#34a853" d="M1847.02 924.905c5.25 5.935 2.64 36.785 5.98 43.864.79 1.693 1.42 7.919 3.45 8.598 1.57.522 3.33-1.597 4.19-2.574 3.06-3.452 5.16-7.904 7.03-12.068 4.85-10.735 8.71-23.987 7.13-35.85-.26-2.003-.72-4.053-1.52-5.914-3.52-8.121-12.71-5.808-18.62-2.034-2.73 1.749-5.23 3.807-7.64 5.978Z" transform="matrix(.89406 -.14872 .1447 .91894 83.332 350.673)" class="color477282 svgShape"/></g></g><g transform="scale(-10.47118 10.47118) rotate(-6.308 -5748.591 18682.887)" fill="#000000" class="color000 svgShape"><circle cx="1873.49" cy="922.267" r="28.654" fill="#fbbc05" class="colorf29f05 svgShape"/><clipPath id="g"><circle cx="1873.49" cy="922.267" r="28.654" fill="#000000" class="color000 svgShape"/></clipPath><g clip-path="url(#g)" fill="#000000" class="color000 svgShape"><path fill="#d9a100" d="M1078.06 1036.13c3.78 18.66 2.57 41.21-14.47 53.1a42.774 42.774 0 0 1-10.56 5.33c-9.42 3.22-20.72 3.17-29.76-1.21-2.66-1.28-5.19-2.91-7.34-4.94-1.35-1.27-2.69-3.39-4.37-4.22-1.67-.83-2.13 1.29-2.03 2.49.36 4.52 3.42 9 6.17 12.4 10.58 13.09 28.05 16.93 43.83 11.83 27.21-8.79 41.45-49.94 18.53-74.78Z" transform="translate(1082.17 116.823) scale(.75569)" class="colord98a00 svgShape"/></g></g><path fill="#ffffff" fill-rule="nonzero" d="M1754.55 918.17c0-2.929-.81-5.261-2.44-6.993-1.62-1.733-4.38-3.332-8.28-4.797-3.89-1.465-7.25-2.921-10.07-4.368-2.83-1.447-5.25-3.108-7.27-4.984a20.055 20.055 0 0 1-4.71-6.619c-1.13-2.536-1.69-5.555-1.69-9.057 0-6.038 1.93-10.986 5.79-14.845 3.86-3.859 8.98-6.109 15.38-6.753v-11.468h8.57v11.629c6.33.893 11.28 3.528 14.85 7.905 3.57 4.377 5.36 10.049 5.36 17.016h-15.49c0-4.288-.89-7.494-2.65-9.62-1.77-2.126-4.14-3.189-7.1-3.189-2.93 0-5.2.831-6.81 2.492-1.61 1.662-2.41 3.957-2.41 6.887 0 2.715.78 4.895 2.36 6.538 1.57 1.644 4.49 3.323 8.76 5.038 4.27 1.715 7.78 3.332 10.53 4.85 2.75 1.518 5.07 3.233 6.97 5.145a19.971 19.971 0 0 1 4.34 6.538c1 2.448 1.5 5.297 1.5 8.548 0 6.074-1.9 11.005-5.68 14.792-3.79 3.787-9.01 6.02-15.65 6.699v10.665h-8.52v-10.612c-7.33-.786-13-3.385-17.02-7.797-4.02-4.413-6.03-10.281-6.03-17.605h15.49c0 4.251 1.01 7.511 3.03 9.78 2.02 2.269 4.92 3.403 8.71 3.403 3.14 0 5.62-.83 7.45-2.492 1.82-1.661 2.73-3.903 2.73-6.726Z" transform="rotate(-23.692 633.93 15343.512) scale(3.77992)" class="colorfff svgShape"/><g transform="rotate(-128.541 9688.974 668.804) scale(7.09156 -6.89958)" fill="#000000" class="color000 svgShape"><path fill="#4285f4" d="M1821.75 1026.45c-.58 9.11 6.49 6.14 7.62-4.19 1.06-9.78 5.18-9.59 11.45-17.39 6.79-8.459 16.47-13.765 25.14-19.935 9.65-6.873 18.1-14.74 21.35-27.711.99-3.91 1.36-7.975.98-11.995-.41-4.286-1.79-8.419-3.64-12.283-.89-1.862-3.09-2.627-4.9-1.709-1.81.918-2.56 3.175-1.66 5.036 1.46 3.054 2.59 6.308 2.92 9.696.3 3.143-.01 6.319-.78 9.376-2.78 11.05-10.21 17.553-18.44 23.408-9.21 6.558-19.4 12.339-26.62 21.327-8.25 10.28-12.59 13.37-13.42 26.37Z" class="color6993a4 svgShape"/><clipPath id="h"><path d="M1821.75 1026.45c-.58 9.11 6.49 6.14 7.62-4.19 1.06-9.78 5.18-9.59 11.45-17.39 6.79-8.459 16.47-13.765 25.14-19.935 9.65-6.873 18.1-14.74 21.35-27.711.99-3.91 1.36-7.975.98-11.995-.41-4.286-1.79-8.419-3.64-12.283-.89-1.862-3.09-2.627-4.9-1.709-1.81.918-2.56 3.175-1.66 5.036 1.46 3.054 2.59 6.308 2.92 9.696.3 3.143-.01 6.319-.78 9.376-2.78 11.05-10.21 17.553-18.44 23.408-9.21 6.558-19.4 12.339-26.62 21.327-8.25 10.28-12.59 13.37-13.42 26.37Z" fill="#000000" class="color000 svgShape"/></clipPath><g clip-path="url(#h)" fill="#000000" class="color000 svgShape"><path fill="#34a853" d="M1847.02 924.905c5.25 5.935 2.64 36.785 5.98 43.864.79 1.693 1.42 7.919 3.45 8.598 1.57.522 3.33-1.597 4.19-2.574 3.06-3.452 5.16-7.904 7.03-12.068 4.85-10.735 8.71-23.987 7.13-35.85-.26-2.003-.72-4.053-1.52-5.914-3.52-8.121-12.71-5.808-18.62-2.034-2.73 1.749-5.23 3.807-7.64 5.978Z" transform="matrix(.89406 -.14872 .1447 .91894 83.332 350.673)" class="color477282 svgShape"/></g></g><g transform="scale(-8.49924 8.49924) rotate(-51.459 135.594 2774.746)" fill="#000000" class="color000 svgShape"><circle cx="1873.49" cy="922.267" r="28.654" fill="#fbbc05" class="colorf29f05 svgShape"/><clipPath id="i"><circle cx="1873.49" cy="922.267" r="28.654" fill="#000000" class="color000 svgShape"/></clipPath><g clip-path="url(#i)" fill="#000000" class="color000 svgShape"><path fill="#d9a100" d="M1078.06 1036.13c3.78 18.66 2.57 41.21-14.47 53.1a42.774 42.774 0 0 1-10.56 5.33c-9.42 3.22-20.72 3.17-29.76-1.21-2.66-1.28-5.19-2.91-7.34-4.94-1.35-1.27-2.69-3.39-4.37-4.22-1.67-.83-2.13 1.29-2.03 2.49.36 4.52 3.42 9 6.17 12.4 10.58 13.09 28.05 16.93 43.83 11.83 27.21-8.79 41.45-49.94 18.53-74.78Z" transform="translate(1082.17 116.823) scale(.75569)" class="colord98a00 svgShape"/></g></g><path fill="#ffffff" fill-rule="nonzero" d="M1754.55 918.17c0-2.929-.81-5.261-2.44-6.993-1.62-1.733-4.38-3.332-8.28-4.797-3.89-1.465-7.25-2.921-10.07-4.368-2.83-1.447-5.25-3.108-7.27-4.984a20.055 20.055 0 0 1-4.71-6.619c-1.13-2.536-1.69-5.555-1.69-9.057 0-6.038 1.93-10.986 5.79-14.845 3.86-3.859 8.98-6.109 15.38-6.753v-11.468h8.57v11.629c6.33.893 11.28 3.528 14.85 7.905 3.57 4.377 5.36 10.049 5.36 17.016h-15.49c0-4.288-.89-7.494-2.65-9.62-1.77-2.126-4.14-3.189-7.1-3.189-2.93 0-5.2.831-6.81 2.492-1.61 1.662-2.41 3.957-2.41 6.887 0 2.715.78 4.895 2.36 6.538 1.57 1.644 4.49 3.323 8.76 5.038 4.27 1.715 7.78 3.332 10.53 4.85 2.75 1.518 5.07 3.233 6.97 5.145a19.971 19.971 0 0 1 4.34 6.538c1 2.448 1.5 5.297 1.5 8.548 0 6.074-1.9 11.005-5.68 14.792-3.79 3.787-9.01 6.02-15.65 6.699v10.665h-8.52v-10.612c-7.33-.786-13-3.385-17.02-7.797-4.02-4.413-6.03-10.281-6.03-17.605h15.49c0 4.251 1.01 7.511 3.03 9.78 2.02 2.269 4.92 3.403 8.71 3.403 3.14 0 5.62-.83 7.45-2.492 1.82-1.661 2.73-3.903 2.73-6.726Z" transform="rotate(21.459 5092.912 -6475.026) scale(3.06808)" class="colorfff svgShape"/><g transform="matrix(4.52045 -6.18547 -7.45377 -5.44734 3054.522 16038.93)" fill="#000000" class="color000 svgShape"><circle cx="1344.05" cy="940.929" r="18.237" fill="#faeaba" class="colorfad8ba svgShape"/><clipPath id="j"><circle cx="1344.05" cy="940.929" r="18.237" fill="#000000" class="color000 svgShape"/></clipPath><g clip-path="url(#j)" fill="#000000" class="color000 svgShape"><path fill="#d7c799" d="M1655.67 790.479c-.55 2.404-1.49 4.59-2.79 6.69-.59.961-1.19 2.019-2.08 2.729-2.3 1.818-5.91 1.969-8.64 1.331-1.27-.296-2.43-.842-3.51-1.572-2.24-1.526-4.74-4.998-7.76-2.898-.46.319-.86.733-1.19 1.179a6.87 6.87 0 0 0-1.04 2.047 7.432 7.432 0 0 0-.37 2.29c-.05 6.452 7.52 9.452 12.92 9.506 5.67.057 15.3-4.597 17.79-11.144 1.12-2.95-4.28-7.867-3.33-10.158Z" transform="matrix(-.86708 .98458 -1.18646 -.71955 3710.79 -100.301)" class="colord7b699 svgShape"/></g></g><g transform="matrix(-5.95002 -4.82615 5.81572 -7.17004 7128.721 15432.663)" fill="#000000" class="color000 svgShape"><circle cx="1344.05" cy="940.929" r="18.237" fill="#faeaba" class="colorfad8ba svgShape"/><clipPath id="k"><circle cx="1344.05" cy="940.929" r="18.237" fill="#000000" class="color000 svgShape"/></clipPath><g clip-path="url(#k)" fill="#000000" class="color000 svgShape"><path fill="#d7c799" d="M1655.67 790.479c-.55 2.404-1.49 4.59-2.79 6.69-.59.961-1.19 2.019-2.08 2.729-2.3 1.818-5.91 1.969-8.64 1.331-1.27-.296-2.43-.842-3.51-1.572-2.24-1.526-4.74-4.998-7.76-2.898-.46.319-.86.733-1.19 1.179a6.87 6.87 0 0 0-1.04 2.047 7.432 7.432 0 0 0-.37 2.29c-.05 6.452 7.52 9.452 12.92 9.506 5.67.057 15.3-4.597 17.79-11.144 1.12-2.95-4.28-7.867-3.33-10.158Z" transform="matrix(-.86708 .98458 -1.18646 -.71955 3710.79 -100.301)" class="colord7b699 svgShape"/></g></g><path fill="#faeaba" d="M1357.22 921.043s10.03 16.363 10.03 26.429c0 10.065-8.17 18.237-18.24 18.237-10.06 0-23.2-14.714-23.2-24.78 0-10.065 31.41-19.886 31.41-19.886Z" transform="matrix(1.63594 -3.00482 -7.18725 -3.91302 6598.257 10172.794)" class="colorfad8ba svgShape"/><g transform="translate(-8563.95 -2862.835) scale(6.99474)" fill="#000000" class="color000 svgShape"><path fill="#ea4335" d="M1682.05 857.756s-49.05 8.464-68.67-3.389c-21.65-13.083-61.23-75.109-61.23-75.109-15.47 2.169-25.42 9.804-31.86 20.913 0 0 18.21 68.841 52.25 108.966 24.18 28.496 79.84 79.143 79.84 79.143l29.67-130.524Z" class="colorf25c05 svgShape"/><clipPath id="l"><path d="M1682.05 857.756s-49.05 8.464-68.67-3.389c-21.65-13.083-61.23-75.109-61.23-75.109-15.47 2.169-25.42 9.804-31.86 20.913 0 0 18.21 68.841 52.25 108.966 24.18 28.496 79.84 79.143 79.84 79.143l29.67-130.524Z" fill="#000000" class="color000 svgShape"/></clipPath><g clip-path="url(#l)" fill="#000000" class="color000 svgShape"><path fill="#d21000" d="M1519.9 848.086c19.39 29.63 40.83 70.669 72.66 85.715 11.74 5.547 23.85 10.874 36.35 14.459 3.54 1.015 12.06 1.078 13.73 5.259 2.45 6.121-1.64 3.42-5.03 7.748-12.26 15.682-31.66 25.536-51.42 18.268-11.77-4.33-21.9-13.072-30.06-22.383-16.44-18.763-26.88-86.167-36.23-109.066Z" transform="translate(-181.892 -131.256) scale(1.12302)" class="colord23f00 svgShape"/></g></g><g transform="matrix(8.24643 0 0 7.58514 -10839.535 -3487.787)" fill="#000000" class="color000 svgShape"><path fill="#ea4335" d="M1797.49 882.107c-26.47-29.429-92.98-24.551-119.31 5.303-26.65 30.206-40.57 175.93-40.57 175.93l199.42.65c-24.89 1.38-13.06-152.454-39.54-181.883Z" class="colorf25c05 svgShape"/><clipPath id="m"><path d="M1797.49 882.107c-26.47-29.429-92.98-24.551-119.31 5.303-26.65 30.206-40.57 175.93-40.57 175.93l199.42.65c-24.89 1.38-13.06-152.454-39.54-181.883Z" fill="#000000" class="color000 svgShape"/></clipPath><g clip-path="url(#m)" fill="#000000" class="color000 svgShape"><path fill="#d21000" d="M1758.95 943.1c-9.72 14.241 2.83 37.847-3.09 53.933-7.78 21.157.68 28.487 7.26 48.587 2.07 6.33 2.42 13.54 6.91 18.78 9.99 11.65 29.36 13.71 41.4 4.15 9.15-7.27 14.11-18.84 17.01-29.85 2.55-9.66 3.31-19.81 2.74-29.78-.97-17.078-65.17-55.648-72.23-65.82Z" transform="matrix(.95256 0 0 1.03561 121.664 -38.648)" class="colord23f00 svgShape"/></g></g><path fill="#024113" d="M1688.91 960.35c-.58.352-1.15.693-1.72 1.024-7.81 4.555-15.79 8.867-23.06 14.28-6.94 5.17-14.1 12.053-16.35 20.72-.47 1.796-.95 4.366-.53 6.506.33 1.68 1.19 3.11 2.83 3.92 1.34.65 2.82.79 4.32.59 2.02-.28 4.06-1.18 5.68-2.04 6.74-3.58 11.9-9.405 16.43-15.421 5.62-7.448 11.71-17.599 14.52-28.021 5.58-3.492 11.27-7.995 13.85-14.05 2.78-6.54 1.2-13.155.1-19.662-1-5.941-1.59-11.798 2.98-17.372 4.41-5.376 13.21-12.327 19.25-19.929 4.24-5.337 7.11-11.011 6.53-16.671a1.21 1.21 0 0 0-1.33-1.091c-.67.068-1.16.667-1.09 1.337.51 5.082-2.21 10.116-6.02 14.908-6.03 7.591-14.82 14.53-19.22 19.899-5.1 6.211-4.63 12.706-3.5 19.326 1.02 6.056 2.64 12.213.05 18.3-2.06 4.856-6.33 8.586-10.81 11.594.06-.282.11-.563.16-.845 1.44-8.103.61-16.169-4.08-23.136-3.36-4.999-8.06-9.044-12.28-13.426-4.02-4.172-7.62-8.655-9-14.727-2.64-11.602-1.35-19.336 10.72-32.476a1.22 1.22 0 0 0-.07-1.723 1.228 1.228 0 0 0-1.73.073c-12.86 14.01-14.12 22.298-11.3 34.668 1.49 6.532 5.3 11.39 9.63 15.878 4.12 4.279 8.72 8.213 12.01 13.095 4.33 6.425 5.02 13.876 3.7 21.348a49.426 49.426 0 0 1-.67 3.124Zm-.97 3.409c-7.57 4.407-15.31 8.603-22.35 13.851-6.52 4.854-13.34 11.24-15.45 19.377-.33 1.268-.7 2.987-.6 4.573.08 1.27.44 2.47 1.62 3.05 1.14.56 2.46.5 3.73.21 1.46-.34 2.87-1 4.04-1.62 6.43-3.416 11.31-9.005 15.64-14.74 5-6.635 10.41-15.473 13.37-24.701Z" transform="translate(-9836.24 -3780.94) scale(7.85524)" class="color023341 svgShape"/><g transform="scale(-6.99474 6.99474) rotate(25.668 1456.496 -4244.731)" fill="#000000" class="color000 svgShape"><path fill="#ea4335" d="M1682.05 857.756s-49.05 8.464-68.67-3.389c-21.65-13.083-61.23-75.109-61.23-75.109-15.47 2.169-25.42 9.804-31.86 20.913 0 0 17.11 69.8 52.25 108.966 34.93 38.933 128.96 59.256 128.96 59.256l-19.45-110.637Z" class="colorf25c05 svgShape"/><clipPath id="n"><path d="M1682.05 857.756s-49.05 8.464-68.67-3.389c-21.65-13.083-61.23-75.109-61.23-75.109-15.47 2.169-25.42 9.804-31.86 20.913 0 0 17.11 69.8 52.25 108.966 34.93 38.933 128.96 59.256 128.96 59.256l-19.45-110.637Z" fill="#000000" class="color000 svgShape"/></clipPath><g clip-path="url(#n)" fill="#000000" class="color000 svgShape"><path fill="#d21000" d="M1855.5 784.793c-1.49 13.443-.34 18.912-1.86 40.495-2.17 30.615-18.13 55.798-39.12 78.018-13.68 14.482-29.54 27.456-47.45 36.356-6.49 3.226-19.72 5.943-19.6 15.25.09 7.18 5.48 13.944 10.27 18.733 16.37 16.353 41.87 17.874 61.18 5.763 12.5-7.844 21.82-20.038 31.77-30.82 54.04-58.56 1.05-132.796 4.81-163.795Z" transform="matrix(-1.0122 .48645 .48645 1.0122 3015.7 -884.309)" class="colord23f00 svgShape"/></g></g><g transform="matrix(-10.31527 0 0 10.31527 18531.623 -5365.491)" fill="#000000" class="color000 svgShape"><path fill="#faeaba" d="m1463.74 798.269-20.05.291c2.78 7.537 1.54 11.379-1.32 18.449 25.5 49.252 32.07 32.554 23.43.453-3.38-4.809-4.5-10.952-2.06-19.193Z" class="colorfad8ba svgShape"/><clipPath id="o"><path d="m1463.74 798.269-20.05.291c2.78 7.537 1.54 11.379-1.32 18.449 25.5 49.252 32.07 32.554 23.43.453-3.38-4.809-4.5-10.952-2.06-19.193Z" fill="#000000" class="color000 svgShape"/></clipPath><g clip-path="url(#o)" fill="#000000" class="color000 svgShape"><path fill="#d7c799" d="M1476.62 834.969c-3.25 4.715-8.83 6.632-14.35 5.478-3.18-.661-6.21-2.666-6.89-6.053-.69-3.45 1.44-6.188 4.33-7.834 4.51-2.564 12.83 5.114 16.91 8.409Z" transform="translate(-197.536 -130.504) scale(1.12652)" class="colord7b699 svgShape"/><path fill="#d7c799" d="M673.19 1001.35c1.085 8.31 2.281 16.74 1.722 25.13-.29 4.36 5.454 24.62-3.631 26.91-7.912 1.99-9.304 4.53-4.045 9.22 5.167 4.6 12.129 4.42 16.349-1.31 2.487-3.37 3.772-7.64 4.527-11.71 1.659-8.96-13.035-39.4-14.922-48.24Z" transform="translate(706.7 -342.261) scale(1.12652)" class="colord7b699 svgShape"/></g></g><path fill="#faeaba" d="M1454.31 765.662c9.51 0 17.23 10.205 17.23 22.775 0 12.569-1.65 23.474-11.15 23.474-9.51 0-23.3-10.905-23.3-23.474 0-12.57 7.72-22.775 17.22-22.775Z" transform="matrix(-8.40974 0 0 8.40974 15760.295 -3818.315)" class="colorfad8ba svgShape"/><path fill="#032f0f" d="M1678.5 833.446c8.08 3.384 21.19 4.229 28.93-.141-1.11 3.591-.09 8.26.71 11.768.95 4.158 2.16 8.481 4.6 12.031 5.6 8.129 16.13 9.33 25.09 7.168 24.79-5.98 41.88-31.563 38.29-56.695-2.01-14.057-10.79-31.511-27.61-26.947-.34-13.942-15.23-24.384-27.92-25.084-20.89-1.152-45.33 14.9-42.37 37.885-3.87-.57-7.6 3.835-9.45 6.613-5.36 8.011-3.81 27.728 9.73 33.402Z" transform="translate(-6788.337 -2296.535) scale(6.06726)" class="color03222f svgShape"/><path fill="#a6bde4" d="M1801.56 1193.15h-38.09v10.27l-30.93-20.54 30.93-20.54v10.27h38.09v20.54Z" transform="rotate(52.674 31611.396 -12406.195) scale(14.99356)" class="colora6d2e4 svgShape"/><path fill="#ffffff" fill-rule="nonzero" d="M1698.69 575.454c0-4.787 1.56-8.673 4.66-11.656 3.11-2.983 7.19-4.475 12.22-4.475 5.11 0 9.22 1.474 12.33 4.421 3.11 2.948 4.66 6.941 4.66 11.978v3.859c0 4.823-1.55 8.7-4.66 11.63-3.11 2.929-7.18 4.394-12.22 4.394-5.07 0-9.17-1.474-12.3-4.421-3.13-2.948-4.69-6.923-4.69-11.924v-3.806Zm10.29 4.127c0 2.144.62 3.868 1.85 5.172 1.23 1.304 2.85 1.956 4.85 1.956 2 0 3.59-.661 4.77-1.983 1.18-1.322 1.77-3.091 1.77-5.306v-3.966c0-2.143-.59-3.876-1.77-5.198-1.18-1.322-2.81-1.983-4.88-1.983-1.96 0-3.55.652-4.77 1.956-1.21 1.304-1.82 3.117-1.82 5.44v3.912Zm27.01 39.766c0-4.824 1.57-8.709 4.72-11.657 3.14-2.947 7.21-4.421 12.22-4.421 5.07 0 9.17 1.456 12.3 4.368 3.12 2.912 4.68 6.922 4.68 12.031v3.859c0 4.788-1.53 8.655-4.6 11.603-3.08 2.947-7.17 4.421-12.28 4.421-5.14 0-9.27-1.483-12.38-4.448-3.1-2.965-4.66-6.896-4.66-11.79v-3.966Zm10.29 4.18c0 1.965.64 3.644 1.93 5.038 1.29 1.393 2.89 2.09 4.82 2.09 4.36 0 6.54-2.412 6.54-7.235v-4.073c0-2.144-.61-3.868-1.82-5.172-1.21-1.304-2.82-1.956-4.82-1.956-2.01 0-3.61.652-4.83 1.956-1.21 1.304-1.82 3.082-1.82 5.333v4.019Zm-27.55 9.111-7.55-4.073 38.1-60.989 7.56 4.073-38.11 60.989Z" transform="matrix(3.23676 -2.46809 2.97382 3.9 -2896.196 3708.67)" class="colorfff svgShape"/><path fill="#faeaba" d="M1357.22 921.043s5.07 9.821 5.07 19.886c0 10.066-8.17 18.238-18.24 18.238-10.07 0-18.24-8.172-18.24-18.238 0-10.065 31.41-19.886 31.41-19.886Z" transform="matrix(3.08998 1.46876 3.51315 -7.39094 -2942.945 7062.198)" class="colorfad8ba svgShape"/><path fill="#032f0f" d="M1358.95 1066.85h457.854v8.317H1358.95z" transform="matrix(7.85524 0 0 2.83972 -9474.298 1552.64)" class="color03222f svgShape"/><path fill="#032f0f" d="M1358.95 1066.85h457.854v8.317H1358.95z" transform="matrix(.84164 0 0 3.01791 -448.58 1365.504)" class="color03222f svgShape"/></svg>