<svg xmlns="http://www.w3.org/2000/svg" fill-rule="evenodd" stroke-linejoin="round" stroke-miterlimit="2" clip-rule="evenodd" viewBox="0 0 6000 6000"><path fill="#eeeeee" d="M1722.08 728.665c13.41 0 24.29 10.886 24.29 24.296 0 13.409-10.88 24.295-24.29 24.295-13.41 0-24.3-10.886-24.3-24.295 0-13.41 10.89-24.296 24.3-24.296Zm0 12.148c6.7 0 12.15 5.443 12.15 12.148 0 6.704-5.45 12.147-12.15 12.147-6.71 0-12.15-5.443-12.15-12.147 0-6.705 5.44-12.148 12.15-12.148Z" transform="translate(-4418.548 -996.2) scale(4.7071)" class="coloreee svgShape"/><path fill="#eeeeee" d="M1722.08 728.665c13.41 0 24.29 10.886 24.29 24.296 0 13.409-10.88 24.295-24.29 24.295-13.41 0-24.3-10.886-24.3-24.295 0-13.41 10.89-24.296 24.3-24.296Zm0 12.148c6.7 0 12.15 5.443 12.15 12.148 0 6.704-5.45 12.147-12.15 12.147-6.71 0-12.15-5.443-12.15-12.147 0-6.705 5.44-12.148 12.15-12.148Z" transform="translate(-4023.318 -824.657) scale(4.7071)" class="coloreee svgShape"/><path fill="#eeeeee" d="M1722.08 728.665c13.41 0 24.29 10.886 24.29 24.296 0 13.409-10.88 24.295-24.29 24.295-13.41 0-24.3-10.886-24.3-24.295 0-13.41 10.89-24.296 24.3-24.296Zm0 12.148c6.7 0 12.15 5.443 12.15 12.148 0 6.704-5.45 12.147-12.15 12.147-6.71 0-12.15-5.443-12.15-12.147 0-6.705 5.44-12.148 12.15-12.148Z" transform="translate(-3736.801 -1284.514) scale(4.7071)" class="coloreee svgShape"/><path fill="#eeeeee" d="M1722.08 728.665c13.41 0 24.29 10.886 24.29 24.296 0 13.409-10.88 24.295-24.29 24.295-13.41 0-24.3-10.886-24.3-24.295 0-13.41 10.89-24.296 24.3-24.296Zm0 12.148c6.7 0 12.15 5.443 12.15 12.148 0 6.704-5.45 12.147-12.15 12.147-6.71 0-12.15-5.443-12.15-12.147 0-6.705 5.44-12.148 12.15-12.148Z" transform="translate(-3446.786 -996.2) scale(4.7071)" class="coloreee svgShape"/><path fill="#eeeeee" d="m1695.14 775.368 61.8 26.822c1.52.662 3.3.107 4.18-1.303l42.57-68.329 42.37 42.112a3.352 3.352 0 1 0 4.72-4.757l-45.34-45.079a3.362 3.362 0 0 0-2.75-.953 3.343 3.343 0 0 0-2.46 1.557l-43.27 69.448-59.15-25.671a3.355 3.355 0 0 0-2.67 6.153Z" transform="translate(-7162.58 -2391.224) scale(6.39561)" class="coloreee svgShape"/><path fill="#eeeeee" d="M1367.87 1064.27c-16.2-27.2-5.1-24.61-27.5-49.2-32.59-35.806-30.6-85.88-9.68-117.487 33.09-49.973 88.14-39.736 149.85-61.622 45.64-16.188 54.86-64.346 80.36-99.697 14.15-19.614 37.59-32.904 61.42-22.446 77.02 33.795-27.13 129.844 17.94 177.175 42.26 44.382 111.49-5.416 154.58-21.255 20.78-7.64 46.03-14.775 65.08.596 20.14 16.243 13.15 44.861 2.29 64.305-15.35 27.479-39.43 49.167-51.02 78.951-7.15 18.4-10.85 31.35-8.92 50.68h-434.4Z" transform="translate(-10170.3 -4371.25) scale(8.29167)" class="coloreee svgShape"/><path fill="#024113" d="M1810.13 818.477c0-5.419-9.48-17.359-15.8-17.359-19.44 0-54.33 7.546-73.77 7.546-6.32 0-11.44 4.394-11.44 9.813 0 21.484-7.11 67.608-7.11 89.092 0 5.419 12.23 14.677 18.55 14.677h78.13c6.32 0 11.44-4.394 11.44-9.813v-93.956Z" transform="matrix(11.50044 .16566 -5.5069 13.33368 -11123.924 -8118.052)" class="color023341 svgShape"/><path fill="#a6bde4" d="M1810.13 818.477c0-5.419-5.12-9.813-11.44-9.813h-78.13c-6.32 0-11.44 4.394-11.44 9.813v93.956c0 5.419 5.12 9.813 11.44 9.813h78.13c6.32 0 11.44-4.394 11.44-9.813v-93.956Z" transform="matrix(11.50044 .16566 -5.5069 13.33368 -11173.087 -8233.496)" class="colora6d2e4 svgShape"/><path fill="#ffffff" d="M1810.13 849.207c0-22.391-5.43-40.543-12.14-40.543h-76.73c-6.7 0-12.14 18.152-12.14 40.543v32.497c0 22.39 5.44 40.542 12.14 40.542h76.73c6.71 0 12.14-18.152 12.14-40.542v-32.497Z" transform="matrix(9.62551 .13864 -1.1841 2.86701 -11419.206 398.084)" class="colorfff svgShape"/><path fill="#024113" fill-rule="nonzero" d="M1876.62 735.374c0 10.79-2.24 19.043-6.7 24.759-4.47 5.717-11.01 8.575-19.62 8.575-8.5 0-15-2.805-19.5-8.414-4.51-5.609-6.81-13.648-6.92-24.117v-14.362c0-10.898 2.26-19.169 6.78-24.814 4.52-5.645 11.03-8.467 19.54-8.467 8.5 0 15 2.795 19.5 8.387 4.51 5.591 6.81 13.621 6.92 24.09v14.363Zm-15.49-15.757c0-6.467-.88-11.174-2.65-14.121-1.77-2.948-4.53-4.422-8.28-4.422-3.65 0-6.34 1.403-8.07 4.207-1.73 2.805-2.65 7.191-2.76 13.157v18.972c0 6.36.87 11.085 2.6 14.175 1.73 3.091 4.51 4.636 8.33 4.636 3.79 0 6.52-1.483 8.2-4.448 1.68-2.966 2.56-7.503 2.63-13.613v-18.543ZM1888.52 760.026c0-2.465.83-4.466 2.49-6.002 1.66-1.537 3.74-2.305 6.24-2.305 2.54 0 4.64.768 6.3 2.305 1.66 1.536 2.49 3.537 2.49 6.002 0 2.43-.82 4.404-2.46 5.922-1.65 1.519-3.76 2.278-6.33 2.278-2.54 0-4.63-.759-6.27-2.278-1.64-1.518-2.46-3.492-2.46-5.922ZM1921.26 729.264l4.5-39.659h43.73v12.916h-31.03l-1.93 16.775c3.68-1.965 7.6-2.948 11.74-2.948 7.43 0 13.26 2.305 17.47 6.914 4.22 4.609 6.33 11.058 6.33 19.347 0 5.037-1.07 9.548-3.19 13.532-2.13 3.983-5.17 7.074-9.14 9.271-3.97 2.197-8.65 3.296-14.04 3.296-4.72 0-9.09-.956-13.13-2.867-4.04-1.912-7.23-4.6-9.57-8.066-2.34-3.465-3.58-7.413-3.72-11.844h15.33c.32 3.252 1.45 5.779 3.4 7.584 1.94 1.804 4.49 2.706 7.63 2.706 3.51 0 6.2-1.259 8.1-3.778 1.89-2.519 2.84-6.083 2.84-10.692 0-4.43-1.09-7.824-3.27-10.183-2.18-2.358-5.27-3.537-9.27-3.537-3.68 0-6.67.965-8.95 2.894l-1.5 1.394-12.33-3.055Z" transform="matrix(2.85404 .02819 -1.29842 2.8415 209.18 1019.53)" class="color023341 svgShape"/><path fill="#ffffff" d="M1734.96 862.572c0-2.915-2.9-5.278-6.47-5.278h-4.4c-3.57 0-6.47 2.363-6.47 5.278v6.786c0 2.914 2.9 5.277 6.47 5.277h4.4c3.57 0 6.47-2.363 6.47-5.277v-6.786Z" transform="matrix(10.9312 .15745 -5.5069 13.33368 -10178.32 -8279.406)" class="colorfff svgShape"/><path fill="#ffffff" d="M1734.96 862.572c0-2.915-2.9-5.278-6.47-5.278h-4.4c-3.57 0-6.47 2.363-6.47 5.278v6.786c0 2.914 2.9 5.277 6.47 5.277h4.4c3.57 0 6.47-2.363 6.47-5.277v-6.786Z" transform="matrix(10.9312 .15745 -5.5069 13.33368 -10307.067 -7967.862)" class="colorfff svgShape"/><path fill="#ffffff" d="M1734.96 862.572c0-2.915-2.9-5.278-6.47-5.278h-4.4c-3.57 0-6.47 2.363-6.47 5.278v6.786c0 2.914 2.9 5.277 6.47 5.277h4.4c3.57 0 6.47-2.363 6.47-5.277v-6.786Z" transform="matrix(10.9312 .15745 -5.5069 13.33368 -10435.621 -7656.257)" class="colorfff svgShape"/><path fill="#ffffff" d="M1734.96 862.572c0-2.915-2.9-5.278-6.47-5.278h-4.4c-3.57 0-6.47 2.363-6.47 5.278v6.786c0 2.914 2.9 5.277 6.47 5.277h4.4c3.57 0 6.47-2.363 6.47-5.277v-6.786Z" transform="matrix(10.9312 .15745 -5.5069 13.33368 -9889.338 -8275.267)" class="colorfff svgShape"/><path fill="#ffffff" d="M1734.96 862.572c0-2.915-2.9-5.278-6.47-5.278h-4.4c-3.57 0-6.47 2.363-6.47 5.278v6.786c0 2.914 2.9 5.277 6.47 5.277h4.4c3.57 0 6.47-2.363 6.47-5.277v-6.786Z" transform="matrix(10.9312 .15745 -5.5069 13.33368 -10018.09 -7963.704)" class="colorfff svgShape"/><path fill="#ffffff" d="M1734.96 862.572c0-2.915-2.9-5.278-6.47-5.278h-4.4c-3.57 0-6.47 2.363-6.47 5.278v6.786c0 2.914 2.9 5.277 6.47 5.277h4.4c3.57 0 6.47-2.363 6.47-5.277v-6.786Z" transform="matrix(10.9312 .15745 -5.5069 13.33368 -10146.64 -7652.118)" class="colorfff svgShape"/><path fill="#ffffff" d="M1734.96 862.572c0-2.915-2.9-5.278-6.47-5.278h-4.4c-3.57 0-6.47 2.363-6.47 5.278v6.786c0 2.914 2.9 5.277 6.47 5.277h4.4c3.57 0 6.47-2.363 6.47-5.277v-6.786Z" transform="matrix(10.9312 .15745 -5.5069 13.33368 -9600.36 -8271.108)" class="colorfff svgShape"/><path fill="#ffffff" d="M1734.96 862.572c0-2.915-2.9-5.278-6.47-5.278h-4.4c-3.57 0-6.47 2.363-6.47 5.278v6.786c0 2.914 2.9 5.277 6.47 5.277h4.4c3.57 0 6.47-2.363 6.47-5.277v-6.786Z" transform="matrix(10.9312 .15745 -5.5069 13.33368 -9362.507 -8267.652)" class="colorfff svgShape"/><path fill="#ffffff" d="M1734.96 862.572c0-2.915-2.9-5.278-6.47-5.278h-4.4c-3.57 0-6.47 2.363-6.47 5.278v6.786c0 2.914 2.9 5.277 6.47 5.277h4.4c3.57 0 6.47-2.363 6.47-5.277v-6.786Z" transform="matrix(10.9312 .15745 -5.5069 13.33368 -9728.91 -7959.523)" class="colorfff svgShape"/><path fill="#ffffff" d="M1734.96 862.572c0-2.915-2.9-5.278-6.47-5.278h-4.4c-3.57 0-6.47 2.363-6.47 5.278v6.786c0 2.914 2.9 5.277 6.47 5.277h4.4c3.57 0 6.47-2.363 6.47-5.277v-6.786Z" transform="matrix(10.9312 .15745 -5.5069 13.33368 -9857.661 -7647.96)" class="colorfff svgShape"/><path fill="#ffffff" d="M1734.96 859.542c0-1.241-3.59-2.248-8.03-2.248h-1.28c-4.44 0-8.03 1.007-8.03 2.248v12.845c0 1.242 3.59 2.248 8.03 2.248h1.28c4.44 0 8.03-1.006 8.03-2.248v-12.845Z" transform="matrix(8.81776 .127 -12.92763 31.30122 518.872 -23307.072)" class="colorfff svgShape"/><path fill="#4285f4" d="M1575.54 1043.31h210.613v16.785H1575.54z" transform="matrix(4.93815 0 0 2.74557 -5209.817 1557.536)" class="color6993a4 svgShape"/><path fill="#4285f4" d="M1575.54 1043.31h210.613v16.785H1575.54z" transform="matrix(4.93815 0 0 2.74557 -5209.817 1465.36)" class="color6993a4 svgShape"/><path fill="#4285f4" d="M1575.54 1043.31h210.613v16.785H1575.54z" transform="matrix(4.93815 0 0 2.74557 -5209.817 1373.19)" class="color6993a4 svgShape"/><path fill="#4285f4" d="M1575.54 1043.31h210.613v16.785H1575.54z" transform="matrix(4.93815 0 0 2.74557 -5209.817 1281.02)" class="color6993a4 svgShape"/><path fill="#4285f4" d="M1575.54 1043.31h210.613v16.785H1575.54z" transform="matrix(4.93815 0 0 2.74557 -5209.817 1188.849)" class="color6993a4 svgShape"/><path fill="#4285f4" d="M1575.54 1043.31h210.613v16.785H1575.54z" transform="matrix(4.93815 0 0 2.74557 -5209.817 1096.678)" class="color6993a4 svgShape"/><path fill="#a6bde4" d="M1575.54 1043.31h210.613v16.785H1575.54z" transform="matrix(4.93815 0 0 2.74557 -5209.817 1511.448)" class="colora6d2e4 svgShape"/><path fill="#a6bde4" d="M1575.54 1043.31h210.613v16.785H1575.54z" transform="matrix(4.93815 0 0 2.74557 -5209.817 1419.277)" class="colora6d2e4 svgShape"/><path fill="#a6bde4" d="M1575.54 1043.31h210.613v16.785H1575.54z" transform="matrix(4.93815 0 0 2.74557 -5209.817 1327.107)" class="colora6d2e4 svgShape"/><path fill="#a6bde4" d="M1575.54 1043.31h210.613v16.785H1575.54z" transform="matrix(4.93815 0 0 2.74557 -5209.817 1234.936)" class="colora6d2e4 svgShape"/><path fill="#a6bde4" d="M1575.54 1043.31h210.613v16.785H1575.54z" transform="matrix(4.93815 0 0 2.74557 -5209.817 1142.766)" class="colora6d2e4 svgShape"/><path fill="#a6bde4" d="M1575.54 1043.31h210.613v16.785H1575.54z" transform="matrix(4.93815 0 0 2.74557 -5209.817 1050.595)" class="colora6d2e4 svgShape"/><path fill="#024113" d="M1575.54 1043.31h97.029v16.785h-97.029z" transform="matrix(4.93815 0 0 2.74557 -4169.78 1557.536)" class="color023341 svgShape"/><path fill="#024113" d="M1575.54 1043.31h97.029v16.785h-97.029z" transform="matrix(4.93815 0 0 2.74557 -4169.78 1465.36)" class="color023341 svgShape"/><path fill="#024113" d="M1575.54 1043.31h97.029v16.785h-97.029z" transform="matrix(4.93815 0 0 2.74557 -4169.78 1373.19)" class="color023341 svgShape"/><path fill="#024113" d="M1575.54 1043.31h97.029v16.785h-97.029z" transform="matrix(4.93815 0 0 2.74557 -4169.78 1281.02)" class="color023341 svgShape"/><path fill="#024113" d="M1575.54 1043.31h97.029v16.785h-97.029z" transform="matrix(4.93815 0 0 2.74557 -4169.78 1188.849)" class="color023341 svgShape"/><path fill="#024113" d="M1575.54 1043.31h97.029v16.785h-97.029z" transform="matrix(4.93815 0 0 2.74557 -4169.78 1096.678)" class="color023341 svgShape"/><path fill="#4b865b" d="M1575.54 1043.31h97.029v16.785h-97.029z" transform="matrix(4.93815 0 0 2.74557 -4169.78 1511.448)" class="color4b7686 svgShape"/><path fill="#4b865b" d="M1575.54 1043.31h97.029v16.785h-97.029z" transform="matrix(4.93815 0 0 2.74557 -4169.78 1419.277)" class="color4b7686 svgShape"/><path fill="#4b865b" d="M1575.54 1043.31h97.029v16.785h-97.029z" transform="matrix(4.93815 0 0 2.74557 -4169.78 1327.107)" class="color4b7686 svgShape"/><path fill="#4b865b" d="M1575.54 1043.31h97.029v16.785h-97.029z" transform="matrix(4.93815 0 0 2.74557 -4169.78 1234.936)" class="color4b7686 svgShape"/><path fill="#4b865b" d="M1575.54 1043.31h97.029v16.785h-97.029z" transform="matrix(4.93815 0 0 2.74557 -4169.78 1142.766)" class="color4b7686 svgShape"/><path fill="#4b865b" d="M1575.54 1043.31h97.029v16.785h-97.029z" transform="matrix(4.93815 0 0 2.74557 -4169.78 1050.595)" class="color4b7686 svgShape"/><g transform="matrix(-8.17195 0 0 8.17195 18008.096 -4785.075)" fill="#000000" class="color000 svgShape"><path fill="#4285f4" d="M1826.95 1063.05c.53-6.86 2.82-13.69 4.99-20.17 5.79-17.25 14.13-32.74 28.91-43.864 7.18-5.402 16.92-10.461 26.23-9.185 4.41.603 9.33 3.149 9.11 8.246-.38 9.113-11.31 16.233-17.99 20.663-16.32 10.83-46.62 22.56-51.25 44.31Z" class="color6993a4 svgShape"/><clipPath id="a"><path d="M1826.95 1063.05c.53-6.86 2.82-13.69 4.99-20.17 5.79-17.25 14.13-32.74 28.91-43.864 7.18-5.402 16.92-10.461 26.23-9.185 4.41.603 9.33 3.149 9.11 8.246-.38 9.113-11.31 16.233-17.99 20.663-16.32 10.83-46.62 22.56-51.25 44.31Z" fill="#000000" class="color000 svgShape"/></clipPath><g clip-path="url(#a)" fill="#000000" class="color000 svgShape"><path fill="#34a853" d="M1855.6 999.788c1.04 2.592.6 5.662.06 8.312-.48 2.39-1.15 4.82-2.38 6.94-4.46 7.66-13.84 10.88-22.14 12.14-3.75.57-9.76.95-12.7-2.13-2.02-2.12-.56-4.16-.44-6.54.03-.63-.47-.78-1-.62-2.87.84-5.33 4.93-6.87 7.2-4.62 6.85-7.57 15.14-8.79 23.29-.43 2.87-1.07 6.88.78 9.42 2.32 3.19 7.6.75 10.29-.51.78-.37 1.56-.76 2.33-1.16.89-.46 1.78-.94 2.65-1.42 1.37-.75 2.71-1.55 4.04-2.35 8.13-4.86 46.98-25.05 52.1-34.6 5.34-9.97-8.7-14.59-17.93-17.972Z" transform="translate(-337.245 -216.062) scale(1.20146)" class="color477282 svgShape"/></g></g><g transform="translate(-11810.386 -4785.075) scale(8.17195)" fill="#000000" class="color000 svgShape"><path fill="#4285f4" d="M1826.95 1063.05c.53-6.86 2.82-13.69 4.99-20.17 5.79-17.25 14.13-32.74 28.91-43.864 7.18-5.402 16.92-10.461 26.23-9.185 4.41.603 9.33 3.149 9.11 8.246-.38 9.113-11.31 16.233-17.99 20.663-16.32 10.83-46.62 22.56-51.25 44.31Z" class="color6993a4 svgShape"/><clipPath id="b"><path d="M1826.95 1063.05c.53-6.86 2.82-13.69 4.99-20.17 5.79-17.25 14.13-32.74 28.91-43.864 7.18-5.402 16.92-10.461 26.23-9.185 4.41.603 9.33 3.149 9.11 8.246-.38 9.113-11.31 16.233-17.99 20.663-16.32 10.83-46.62 22.56-51.25 44.31Z" fill="#000000" class="color000 svgShape"/></clipPath><g clip-path="url(#b)" fill="#000000" class="color000 svgShape"><path fill="#34a853" d="M1855.6 999.788c1.04 2.592.6 5.662.06 8.312-.48 2.39-1.15 4.82-2.38 6.94-4.46 7.66-13.84 10.88-22.14 12.14-3.75.57-9.76.95-12.7-2.13-2.02-2.12-.56-4.16-.44-6.54.03-.63-.47-.78-1-.62-2.87.84-5.33 4.93-6.87 7.2-4.62 6.85-7.57 15.14-8.79 23.29-.43 2.87-1.07 6.88.78 9.42 2.32 3.19 7.6.75 10.29-.51.78-.37 1.56-.76 2.33-1.16.89-.46 1.78-.94 2.65-1.42 1.37-.75 2.71-1.55 4.04-2.35 8.13-4.86 46.98-25.05 52.1-34.6 5.34-9.97-8.7-14.59-17.93-17.972Z" transform="translate(-337.245 -216.062) scale(1.20146)" class="color477282 svgShape"/></g></g><g transform="matrix(-10.84067 0 0 10.5472 22905.548 -7336.748)" fill="#000000" class="color000 svgShape"><path fill="#4285f4" d="M1830.61 1062.95c-.26-10.01-.87-20.78.25-31.11 1.07-9.78 3.69-19.17 9.96-26.97 6.79-8.459 16.47-13.765 25.14-19.935 9.65-6.873 18.1-14.74 21.35-27.711.99-3.91 1.36-7.975.98-11.995-.41-4.286-1.79-8.419-3.64-12.283-.89-1.862-3.09-2.627-4.9-1.709-1.81.918-2.56 3.175-1.66 5.036 1.46 3.054 2.59 6.308 2.92 9.696.3 3.143-.01 6.319-.78 9.376-2.78 11.05-10.21 17.553-18.44 23.408-9.21 6.558-19.4 12.339-26.62 21.327-14.03 17.48-12.43 41.85-11.88 63.07.06 2.08 1.74 3.72 3.76 3.66 2.02-.05 3.61-1.78 3.56-3.86Z" class="color6993a4 svgShape"/><clipPath id="c"><path d="M1830.61 1062.95c-.26-10.01-.87-20.78.25-31.11 1.07-9.78 3.69-19.17 9.96-26.97 6.79-8.459 16.47-13.765 25.14-19.935 9.65-6.873 18.1-14.74 21.35-27.711.99-3.91 1.36-7.975.98-11.995-.41-4.286-1.79-8.419-3.64-12.283-.89-1.862-3.09-2.627-4.9-1.709-1.81.918-2.56 3.175-1.66 5.036 1.46 3.054 2.59 6.308 2.92 9.696.3 3.143-.01 6.319-.78 9.376-2.78 11.05-10.21 17.553-18.44 23.408-9.21 6.558-19.4 12.339-26.62 21.327-14.03 17.48-12.43 41.85-11.88 63.07.06 2.08 1.74 3.72 3.76 3.66 2.02-.05 3.61-1.78 3.56-3.86Z" fill="#000000" class="color000 svgShape"/></clipPath><g clip-path="url(#c)" fill="#000000" class="color000 svgShape"><path fill="#34a853" d="M1847.02 924.905c5.25 5.935 2.64 36.785 5.98 43.864.79 1.693 1.42 7.919 3.45 8.598 1.57.522 3.33-1.597 4.19-2.574 3.06-3.452 5.16-7.904 7.03-12.068 4.85-10.735 8.71-23.987 7.13-35.85-.26-2.003-.72-4.053-1.52-5.914-3.52-8.121-12.71-5.808-18.62-2.034-2.73 1.749-5.23 3.807-7.64 5.978Z" transform="matrix(.89406 -.14872 .1447 .91894 83.332 350.673)" class="color477282 svgShape"/></g></g><g transform="matrix(-12.99254 0 0 12.99254 26928.15 -9622.066)" fill="#000000" class="color000 svgShape"><circle cx="1873.49" cy="922.267" r="28.654" fill="#fbbc05" class="colorf29f05 svgShape"/><clipPath id="d"><circle cx="1873.49" cy="922.267" r="28.654" fill="#000000" class="color000 svgShape"/></clipPath><g clip-path="url(#d)" fill="#000000" class="color000 svgShape"><path fill="#d9a100" d="M1078.06 1036.13c3.78 18.66 2.57 41.21-14.47 53.1a42.774 42.774 0 0 1-10.56 5.33c-9.42 3.22-20.72 3.17-29.76-1.21-2.66-1.28-5.19-2.91-7.34-4.94-1.35-1.27-2.69-3.39-4.37-4.22-1.67-.83-2.13 1.29-2.03 2.49.36 4.52 3.42 9 6.17 12.4 10.58 13.09 28.05 16.93 43.83 11.83 27.21-8.79 41.45-49.94 18.53-74.78Z" transform="translate(1082.17 116.823) scale(.75569)" class="colord98a00 svgShape"/></g></g><path fill="#fbbc05" d="m1886.04 843.909 1.66 10.676 10.68 1.659-10.68 1.658-1.66 10.676-1.66-10.676-10.67-1.658 10.67-1.659 1.66-10.676Z" transform="scale(-13.76128 13.76128) rotate(21.267 2733.869 -5162.35)" class="colorf29f05 svgShape"/><path fill="#fbbc05" d="m1886.04 843.909 1.66 10.676 10.68 1.659-10.68 1.658-1.66 10.676-1.66-10.676-10.67-1.658 10.67-1.659 1.66-10.676Z" transform="scale(-8.07902 8.07902) rotate(21.267 2388.205 -5450.433)" class="colorf29f05 svgShape"/><path fill="#fbbc05" d="m1886.04 843.909 1.66 10.676 10.68 1.659-10.68 1.658-1.66 10.676-1.66-10.676-10.67-1.658 10.67-1.659 1.66-10.676Z" transform="scale(-8.07902 8.07902) rotate(21.267 2307.818 -5498.723)" class="colorf29f05 svgShape"/><path fill="#ffffff" fill-rule="nonzero" d="M1754.55 918.17c0-2.929-.81-5.261-2.44-6.993-1.62-1.733-4.38-3.332-8.28-4.797-3.89-1.465-7.25-2.921-10.07-4.368-2.83-1.447-5.25-3.108-7.27-4.984a20.055 20.055 0 0 1-4.71-6.619c-1.13-2.536-1.69-5.555-1.69-9.057 0-6.038 1.93-10.986 5.79-14.845 3.86-3.859 8.98-6.109 15.38-6.753v-11.468h8.57v11.629c6.33.893 11.28 3.528 14.85 7.905 3.57 4.377 5.36 10.049 5.36 17.016h-15.49c0-4.288-.89-7.494-2.65-9.62-1.77-2.126-4.14-3.189-7.1-3.189-2.93 0-5.2.831-6.81 2.492-1.61 1.662-2.41 3.957-2.41 6.887 0 2.715.78 4.895 2.36 6.538 1.57 1.644 4.49 3.323 8.76 5.038 4.27 1.715 7.78 3.332 10.53 4.85 2.75 1.518 5.07 3.233 6.97 5.145a19.971 19.971 0 0 1 4.34 6.538c1 2.448 1.5 5.297 1.5 8.548 0 6.074-1.9 11.005-5.68 14.792-3.79 3.787-9.01 6.02-15.65 6.699v10.665h-8.52v-10.612c-7.33-.786-13-3.385-17.02-7.797-4.02-4.413-6.03-10.281-6.03-17.605h15.49c0 4.251 1.01 7.511 3.03 9.78 2.02 2.269 4.92 3.403 8.71 3.403 3.14 0 5.62-.83 7.45-2.492 1.82-1.661 2.73-3.903 2.73-6.726Z" transform="rotate(-30 1909.748 13748.278) scale(4.6901)" class="colorfff svgShape"/><g transform="matrix(-6.20551 -6.23831 -6.06943 6.03752 20638.69 8666.877)" fill="#000000" class="color000 svgShape"><path fill="#4285f4" d="M1821.75 1026.45c-.58 9.11 6.49 6.14 7.62-4.19 1.06-9.78 5.18-9.59 11.45-17.39 6.79-8.459 16.47-13.765 25.14-19.935 9.65-6.873 18.1-14.74 21.35-27.711.99-3.91 1.36-7.975.98-11.995-.41-4.286-1.79-8.419-3.64-12.283-.89-1.862-3.09-2.627-4.9-1.709-1.81.918-2.56 3.175-1.66 5.036 1.46 3.054 2.59 6.308 2.92 9.696.3 3.143-.01 6.319-.78 9.376-2.78 11.05-10.21 17.553-18.44 23.408-9.21 6.558-19.4 12.339-26.62 21.327-8.25 10.28-12.59 13.37-13.42 26.37Z" class="color6993a4 svgShape"/><clipPath id="e"><path d="M1821.75 1026.45c-.58 9.11 6.49 6.14 7.62-4.19 1.06-9.78 5.18-9.59 11.45-17.39 6.79-8.459 16.47-13.765 25.14-19.935 9.65-6.873 18.1-14.74 21.35-27.711.99-3.91 1.36-7.975.98-11.995-.41-4.286-1.79-8.419-3.64-12.283-.89-1.862-3.09-2.627-4.9-1.709-1.81.918-2.56 3.175-1.66 5.036 1.46 3.054 2.59 6.308 2.92 9.696.3 3.143-.01 6.319-.78 9.376-2.78 11.05-10.21 17.553-18.44 23.408-9.21 6.558-19.4 12.339-26.62 21.327-8.25 10.28-12.59 13.37-13.42 26.37Z" fill="#000000" class="color000 svgShape"/></clipPath><g clip-path="url(#e)" fill="#000000" class="color000 svgShape"><path fill="#34a853" d="M1847.02 924.905c5.25 5.935 2.64 36.785 5.98 43.864.79 1.693 1.42 7.919 3.45 8.598 1.57.522 3.33-1.597 4.19-2.574 3.06-3.452 5.16-7.904 7.03-12.068 4.85-10.735 8.71-23.987 7.13-35.85-.26-2.003-.72-4.053-1.52-5.914-3.52-8.121-12.71-5.808-18.62-2.034-2.73 1.749-5.23 3.807-7.64 5.978Z" transform="matrix(.89406 -.14872 .1447 .91894 83.332 350.673)" class="color477282 svgShape"/></g></g><g transform="matrix(-7.4373 -7.47662 -7.47662 7.4373 24256.44 9673.52)" fill="#000000" class="color000 svgShape"><circle cx="1873.49" cy="922.267" r="28.654" fill="#fbbc05" class="colorf29f05 svgShape"/><clipPath id="f"><circle cx="1873.49" cy="922.267" r="28.654" fill="#000000" class="color000 svgShape"/></clipPath><g clip-path="url(#f)" fill="#000000" class="color000 svgShape"><path fill="#d9a100" d="M1078.06 1036.13c3.78 18.66 2.57 41.21-14.47 53.1a42.774 42.774 0 0 1-10.56 5.33c-9.42 3.22-20.72 3.17-29.76-1.21-2.66-1.28-5.19-2.91-7.34-4.94-1.35-1.27-2.69-3.39-4.37-4.22-1.67-.83-2.13 1.29-2.03 2.49.36 4.52 3.42 9 6.17 12.4 10.58 13.09 28.05 16.93 43.83 11.83 27.21-8.79 41.45-49.94 18.53-74.78Z" transform="translate(1082.17 116.823) scale(.75569)" class="colord98a00 svgShape"/></g></g><path fill="#ffffff" fill-rule="nonzero" d="M1754.55 918.17c0-2.929-.81-5.261-2.44-6.993-1.62-1.733-4.38-3.332-8.28-4.797-3.89-1.465-7.25-2.921-10.07-4.368-2.83-1.447-5.25-3.108-7.27-4.984a20.055 20.055 0 0 1-4.71-6.619c-1.13-2.536-1.69-5.555-1.69-9.057 0-6.038 1.93-10.986 5.79-14.845 3.86-3.859 8.98-6.109 15.38-6.753v-11.468h8.57v11.629c6.33.893 11.28 3.528 14.85 7.905 3.57 4.377 5.36 10.049 5.36 17.016h-15.49c0-4.288-.89-7.494-2.65-9.62-1.77-2.126-4.14-3.189-7.1-3.189-2.93 0-5.2.831-6.81 2.492-1.61 1.662-2.41 3.957-2.41 6.887 0 2.715.78 4.895 2.36 6.538 1.57 1.644 4.49 3.323 8.76 5.038 4.27 1.715 7.78 3.332 10.53 4.85 2.75 1.518 5.07 3.233 6.97 5.145a19.971 19.971 0 0 1 4.34 6.538c1 2.448 1.5 5.297 1.5 8.548 0 6.074-1.9 11.005-5.68 14.792-3.79 3.787-9.01 6.02-15.65 6.699v10.665h-8.52v-10.612c-7.33-.786-13-3.385-17.02-7.797-4.02-4.413-6.03-10.281-6.03-17.605h15.49c0 4.251 1.01 7.511 3.03 9.78 2.02 2.269 4.92 3.403 8.71 3.403 3.14 0 5.62-.83 7.45-2.492 1.82-1.661 2.73-3.903 2.73-6.726Z" transform="rotate(15.151 8435.224 -9129.791) scale(3.80685)" class="colorfff svgShape"/><path fill="#4b865b" d="M1665.26 952.558c8.91-8.047-107.25-29.54-120.51-19.723-44.26 32.786-72.81 70.205-90.42 110.835l125.35-2.14c16.35-38.38 51.9-73.607 85.58-88.972Z" transform="matrix(5.61371 1.35814 -1.66927 6.89977 -4553.452 -4863.59)" class="color4b7686 svgShape"/><path fill="#4285f4" d="M1665.26 952.558c8.91-8.047-107.25-29.54-120.51-19.723-44.26 32.786-72.81 70.205-90.42 110.835h133.11c16.35-38.37 44.14-75.747 77.82-91.112Z" transform="matrix(6.06856 0 0 7.4588 -7064.166 -3316.447)" class="color6993a4 svgShape"/><path fill="#ffffff" d="M1477.15 885.812c-24.69 0-44.73 20.043-44.73 44.731 0 24.688 20.04 44.732 44.73 44.732 17.7 0 33.01-10.299 40.26-25.225 2.87-5.896 4.47-12.515 4.47-19.507 0-24.688-20.04-44.731-44.73-44.731Zm0 4.654c22.12 0 40.08 17.958 40.08 40.077s-17.96 40.077-40.08 40.077c-22.12 0-40.07-17.958-40.07-40.077s17.95-40.077 40.07-40.077Z" transform="rotate(-60.659 4391.488 9096.984) scale(5.20618)" class="colorfff svgShape"/><path fill="#ffffff" fill-rule="nonzero" d="M1482.79 930.216c0-2.93-.81-5.261-2.44-6.994-1.62-1.733-4.38-3.332-8.28-4.797-3.89-1.465-7.25-2.92-10.07-4.367-2.83-1.447-5.25-3.109-7.26-4.985a19.936 19.936 0 0 1-4.72-6.618c-1.13-2.537-1.69-5.556-1.69-9.057 0-6.039 1.93-10.987 5.79-14.846 3.86-3.858 8.98-6.109 15.38-6.752v-11.469h8.57v11.63c6.33.893 11.28 3.528 14.85 7.904 3.57 4.377 5.36 10.049 5.36 17.016h-15.49c0-4.287-.88-7.494-2.65-9.62-1.77-2.126-4.14-3.189-7.1-3.189-2.93 0-5.2.831-6.81 2.493-1.61 1.661-2.41 3.956-2.41 6.886 0 2.716.79 4.895 2.36 6.538 1.57 1.644 4.49 3.323 8.76 5.038 4.27 1.715 7.78 3.332 10.53 4.85 2.75 1.519 5.07 3.234 6.97 5.145a19.981 19.981 0 0 1 4.34 6.538c1 2.448 1.5 5.297 1.5 8.548 0 6.074-1.9 11.005-5.68 14.792-3.79 3.787-9.01 6.02-15.65 6.699v10.665h-8.52v-10.611c-7.33-.786-13-3.386-17.02-7.798s-6.03-10.281-6.03-17.605h15.49c0 4.252 1.01 7.512 3.03 9.78 2.02 2.269 4.92 3.404 8.71 3.404 3.14 0 5.63-.831 7.45-2.492 1.82-1.662 2.73-3.904 2.73-6.726Z" transform="rotate(-60.659 4530.158 6352.07) scale(3.64733)" class="colorfff svgShape"/><path fill="#ffffff" d="M1634.15 948.081c-.08.481-.27.691-.48 1.051-.42.745-.95 1.893-1.17 5.065-.09 1.194.41 2.594 1.23 3.962 1.1 1.829 3.01 3.968 3.93 4.965-.2.222-.45.487-.72.774-8.03 8.496-47.2 49.842-57.76 100.272-.13.65.28 1.28.93 1.42.65.13 1.28-.28 1.42-.93 10.43-49.86 49.21-90.717 57.15-99.118.74-.783 1.22-1.299 1.41-1.527a1.7 1.7 0 0 0 .26-.42c.08-.188.22-.68-.18-1.267-.42-.608-2.92-2.975-4.38-5.403-.54-.894-.96-1.778-.91-2.557.22-3.047.71-3.78 1.08-4.398.37-.615.66-1.154.62-2.606-.01-.283-.1-.689-.55-1.035-.27-.201-1.02-.522-2.23-.853-8.79-2.418-45.8-8.662-63.04-10.629-4.46-.509-7.64-.714-8.77-.54-3.33.517-4.27 2.021-5.11 3.703-.59 1.177-1.06 2.517-3.1 3.387-.71.305-1.64.405-2.66.449-1.77.078-3.81-.044-5.72.062-2.43.137-4.65.685-6.06 2.151-24.21 25.192-51.96 56.481-73.13 112.241-1.18 3.12-1.56 2.86-2.7 6.14-.22.62.11 1.31.73 1.52a1.2 1.2 0 0 0 1.53-.73c1.13-3.25 1.51-2.99 2.68-6.08 21.01-55.36 48.59-86.42 72.62-111.432.6-.627 1.44-.958 2.38-1.162 1.12-.24 2.37-.292 3.63-.3 2.88-.018 5.8.129 7.64-.657 2.27-.969 3.18-2.318 3.88-3.66.72-1.402 1.05-2.845 3.76-3.265 1.41-.219 6.25.275 12.79 1.124 15.64 2.03 40.78 6.227 52.94 8.8 2.68.569 4.73 1.054 5.87 1.419.06.02.13.042.19.064Z" transform="translate(-7064.166 -2002.635) scale(6.06856)" class="colorfff svgShape"/><g transform="matrix(-6.305 2.49294 2.49294 6.305 10863.632 -7729.953)" fill="#000000" class="color000 svgShape"><ellipse cx="1793.36" cy="975.241" fill="#faeaba" rx="51.634" ry="43.883" class="colorfad8ba svgShape"/><clipPath id="g"><ellipse cx="1793.36" cy="975.241" rx="51.634" ry="43.883" fill="#000000" class="color000 svgShape"/></clipPath><g clip-path="url(#g)" fill="#000000" class="color000 svgShape"><path fill="#e2d2a3" d="M1704.74 876.133c-2.5 5.936 41.63-13.369 41.63-13.369s-8.69 19.629-5.12 33.979c5.96 23.912 33.29 42.048 46.68 44.323 6.83 1.16 13.75.105 20.42-1.467 3.02-.712 7.9-3.049 10.84-1.224 6.02 3.743.25 14.6-2.46 18.335a29.483 29.483 0 0 1-2.76 3.289c-23.76 24.345-80.26-5.55-100.05-31.401-11.35-14.825-14.59-34.71-9.18-52.465Z" transform="rotate(-30.135 1916.187 903.624)" class="colore2c0a3 svgShape"/></g></g><g transform="matrix(-2.21292 3.03096 5.4758 3.99791 390.508 -6239.422)" fill="#000000" class="color000 svgShape"><path fill="#ea4335" d="M1792.86 937.145c13.93 0 10.42 16.074 137.81-37.795 106.78-45.152 245.35 129.02 245.35 129.02l-135.11 102.43c-79.15 3.43-115.85-64.57-93.88-115 20.79-47.733-146.1-.83-157.19-.79-35.95.15 16.53-29.842-5.47-58.004-15.71-20.099-32.66-13.224-28.68-18.529 5.05-6.728 21.24-1.332 37.17-1.332Z" class="colorf25c05 svgShape"/><clipPath id="h"><path d="M1792.86 937.145c13.93 0 10.42 16.074 137.81-37.795 106.78-45.152 245.35 129.02 245.35 129.02l-135.11 102.43c-79.15 3.43-115.85-64.57-93.88-115 20.79-47.733-146.1-.83-157.19-.79-35.95.15 16.53-29.842-5.47-58.004-15.71-20.099-32.66-13.224-28.68-18.529 5.05-6.728 21.24-1.332 37.17-1.332Z" fill="#000000" class="color000 svgShape"/></clipPath><g clip-path="url(#h)" fill="#000000" class="color000 svgShape"><path fill="#d21000" d="M1421.19 857.122c-1.88 9.678-7.43 22.021-14.04 29.3-10.64 11.72-32.88 13.55-46.49 20.143-14.27 6.912-31.85 18.819-30.29 36.901 1.07 12.471 10.14 20.246 20.49 25.927 19.08 10.484 42.13 11.363 60.44 23.569 15.31 10.208 17.36 30.368-.15 39.498-28.98 15.1-72.99 3.6-98.78-13.34-11.09-7.28-19.21-17.74-27.18-28.141-2.08-2.718-5.96-9.847-10.34-6.7-7.46 5.359-1.79 28.891.08 35.771 9.88 36.5 39.26 59.22 75.78 66.42 41.11 8.1 91.93 4.21 128.57-17.53 17.35-10.3 34.13-26.51 35.72-47.73 2.39-32.027-24.35-66.58-34.12-96.542-2.86-8.794-5.15-17.791-6.93-26.865-1.31-6.648-2.39-13.344-3.36-20.049-3.72-25.798-5.21-69.193-40.5-70.402-5.36-.184-3.72 48.498-8.9 49.77Z" transform="matrix(-1.06531 .80765 1.45911 .58967 2030.46 -668.978)" class="colord23f00 svgShape"/></g></g><g transform="matrix(-3.56224 2.82637 1.9542 2.46299 6624.468 -4943.787)" fill="#000000" class="color000 svgShape"><path fill="#faeaba" d="M1793.36 931.358c17.2 0 72.65 1.218 82.04 12.222 6.17 7.228-30.41 22.059-30.41 31.661 0 24.22-23.14 43.879-51.63 43.879-28.5 0-51.64-19.659-51.64-43.879s23.14-43.883 51.64-43.883Z" class="colorfad8ba svgShape"/><clipPath id="i"><path d="M1793.36 931.358c17.2 0 72.65 1.218 82.04 12.222 6.17 7.228-30.41 22.059-30.41 31.661 0 24.22-23.14 43.879-51.63 43.879-28.5 0-51.64-19.659-51.64-43.879s23.14-43.883 51.64-43.883Z" fill="#000000" class="color000 svgShape"/></clipPath><g clip-path="url(#i)" fill="#000000" class="color000 svgShape"><path fill="#e2d2a3" d="M1750.19 835.684c-3.24 1.55 48.1-16.766 27.07 9.99-9.29 11.817-.94 27.206 8.91 37.127 4.98 5.012 10.7 8.995 17.28 11.644 2.47.995 5.02 1.782 7.53 2.672 1.24.442 2.94 1.03 1.12 2.085-10.05 5.835-24.6 3.473-34.2-1.583-21.66-11.4-33.9-38.53-23.74-61.556" transform="matrix(.86186 -.98184 .92258 1.69402 -557.012 1264.58)" class="colore2c0a3 svgShape"/></g></g><path fill="#032f0f" d="M1358.95 1066.85h457.854v8.317H1358.95z" transform="matrix(8.29167 0 0 2.9975 -10092.5 1255.412)" class="color03222f svgShape"/><path fill="#032f0f" d="M1358.95 1066.85h457.854v8.317H1358.95z" transform="matrix(.8884 0 0 3.18558 -565.32 1057.88)" class="color03222f svgShape"/></svg>