<svg xmlns="http://www.w3.org/2000/svg" fill-rule="evenodd" stroke-linejoin="round" stroke-miterlimit="2" clip-rule="evenodd" viewBox="0 0 6000 6000"><path fill="#eeeeee" d="M1433.66 1068.43c-19.28-5.21-143.19-57.5-115.39-123.134 20.48-48.354 82.12-35.603 96.88-60.92 11.65-19.964 6.82-39.783 3.95-61.367-2.86-21.457 44.18-24.842 49.7-46.016 3.87-14.826 11.27-30.327 25.33-37.871 4.67-2.505 9.83-3.688 15.11-3.805 21.42-.475 32.33 13.346 40.8 31.179 5.44 11.471 13.2 28.338 28.37 28.187 10.25-.102 19.81-7.17 27.1-13.677 22.83-20.381 54.53-73.501 91.75-46.158 22.53 16.55 14.76 45.48 7.88 67.924-12.48 40.746-36.16 89.53-2.95 127.082 15.18 17.16 37.68 25.872 60.3 25.872 17 0 34-4.535 50.14 3.117 32.19 15.252 27.3 75.037 25.78 105.487l-404.75 4.1Z" transform="matrix(8.29167 0 0 8.77706 -10208.8 -4990.384)" class="coloreee svgShape"/><path fill="#eeeeee" d="M1469.51 1161.55c-44.95 0-81.38 36.43-81.38 81.37 0 19.27 6.84 37.92 19.3 52.62l46.56-39.46a20.343 20.343 0 0 1-4.83-13.16c0-11.23 9.11-20.34 20.35-20.34v-61.03ZM1418.37 1306.23a81.418 81.418 0 0 0 51.14 18.07c43.53 0 79.35-34.26 81.29-77.75l-40.65-1.81c-.97 21.74-18.88 38.87-40.64 38.87-9.31 0-18.33-3.19-25.57-9.03l-25.57 31.65ZM1549.57 1228.37c-6.06-33.35-32.16-59.45-65.51-65.51l-5.17 28.44c21.5 3.91 38.33 20.74 42.24 42.24l28.44-5.17Z" transform="rotate(-47.224 -103.976 13333.156) scale(7.69167)" class="coloreee svgShape"/><g transform="translate(-5261.703 -1093.188) scale(5.19262)" fill="#000000" class="color000 svgShape"><path fill="#697fa4" d="M1832.5 1051.11c-.36.69-1.18.99-1.9.7a1.51 1.51 0 0 1-.88-1.83c.65-2.41 1.44-4.78 2.22-7.1 5.79-17.25 14.13-32.74 28.91-43.864 7.18-5.402 16.92-10.461 26.23-9.185 4.41.603 9.33 3.149 9.11 8.246-.38 9.113-11.31 16.233-17.99 20.663-13.05 8.66-35.04 17.89-45.7 32.37Z" class="color6993a4 svgShape"/><clipPath id="a"><path d="M1832.5 1051.11c-.36.69-1.18.99-1.9.7a1.51 1.51 0 0 1-.88-1.83c.65-2.41 1.44-4.78 2.22-7.1 5.79-17.25 14.13-32.74 28.91-43.864 7.18-5.402 16.92-10.461 26.23-9.185 4.41.603 9.33 3.149 9.11 8.246-.38 9.113-11.31 16.233-17.99 20.663-13.05 8.66-35.04 17.89-45.7 32.37Z" fill="#000000" class="color000 svgShape"/></clipPath><g clip-path="url(#a)" fill="#000000" class="color000 svgShape"><path fill="#34a853" d="M1855.6 999.788c1.04 2.592.6 5.662.06 8.312-.48 2.39-1.15 4.82-2.38 6.94-4.46 7.66-13.84 10.88-22.14 12.14-3.75.57-9.76.95-12.7-2.13-2.02-2.12-.56-4.16-.44-6.54.03-.63-.47-.78-1-.62-2.87.84-5.33 4.93-6.87 7.2-4.62 6.85-7.57 15.14-8.79 23.29-.43 2.87-1.07 6.88.78 9.42 2.32 3.19 7.6.75 10.29-.51.78-.37 1.56-.76 2.33-1.16.89-.46 1.78-.94 2.65-1.42 1.37-.75 2.71-1.55 4.04-2.35 8.13-4.86 46.98-25.05 52.1-34.6 5.34-9.97-8.7-14.59-17.93-17.972Z" transform="translate(-337.245 -216.062) scale(1.20146)" class="color477282 svgShape"/></g></g><g transform="matrix(-5.79262 0 0 5.79262 14800.548 -1724.988)" fill="#000000" class="color000 svgShape"><path fill="#697fa4" d="M1833.04 1050.4a1.663 1.663 0 0 1-3.05-1.28c.57-2.12 1.27-4.2 1.95-6.24 5.79-17.25 14.13-32.74 28.91-43.864 7.18-5.402 16.92-10.461 26.23-9.185 4.41.603 9.33 3.149 9.11 8.246-.38 9.113-11.31 16.233-17.99 20.663-12.83 8.52-34.32 17.59-45.16 31.66Z" class="color6993a4 svgShape"/><clipPath id="b"><path d="M1833.04 1050.4a1.663 1.663 0 0 1-3.05-1.28c.57-2.12 1.27-4.2 1.95-6.24 5.79-17.25 14.13-32.74 28.91-43.864 7.18-5.402 16.92-10.461 26.23-9.185 4.41.603 9.33 3.149 9.11 8.246-.38 9.113-11.31 16.233-17.99 20.663-12.83 8.52-34.32 17.59-45.16 31.66Z" fill="#000000" class="color000 svgShape"/></clipPath><g clip-path="url(#b)" fill="#000000" class="color000 svgShape"><path fill="#34a853" d="M1855.6 999.788c1.04 2.592.6 5.662.06 8.312-.48 2.39-1.15 4.82-2.38 6.94-4.46 7.66-13.84 10.88-22.14 12.14-3.75.57-9.76.95-12.7-2.13-2.02-2.12-.56-4.16-.44-6.54.03-.63-.47-.78-1-.62-2.87.84-5.33 4.93-6.87 7.2-4.62 6.85-7.57 15.14-8.79 23.29-.43 2.87-1.07 6.88.78 9.42 2.32 3.19 7.6.75 10.29-.51.78-.37 1.56-.76 2.33-1.16.89-.46 1.78-.94 2.65-1.42 1.37-.75 2.71-1.55 4.04-2.35 8.13-4.86 46.98-25.05 52.1-34.6 5.34-9.97-8.7-14.59-17.93-17.972Z" transform="translate(-337.245 -216.062) scale(1.20146)" class="color477282 svgShape"/></g></g><g transform="scale(-7.2889 7.2889) rotate(-32.352 -161.17 4976.6)" fill="#000000" class="color000 svgShape"><path fill="#697fa4" d="M1830.23 1054.6c-.18.43-.66.64-1.1.5-.44-.14-.7-.6-.59-1.05.93-3.8 2.18-7.54 3.4-11.17 5.79-17.25 14.13-32.74 28.91-43.864 7.18-5.402 16.92-10.461 26.23-9.185 4.41.603 9.33 3.149 9.11 8.246-.38 9.113-11.31 16.233-17.99 20.663-14.07 9.34-38.53 19.34-47.97 35.86Z" class="color6993a4 svgShape"/><clipPath id="c"><path d="M1830.23 1054.6c-.18.43-.66.64-1.1.5-.44-.14-.7-.6-.59-1.05.93-3.8 2.18-7.54 3.4-11.17 5.79-17.25 14.13-32.74 28.91-43.864 7.18-5.402 16.92-10.461 26.23-9.185 4.41.603 9.33 3.149 9.11 8.246-.38 9.113-11.31 16.233-17.99 20.663-14.07 9.34-38.53 19.34-47.97 35.86Z" fill="#000000" class="color000 svgShape"/></clipPath><g clip-path="url(#c)" fill="#000000" class="color000 svgShape"><path fill="#34a853" d="M1855.6 999.788c1.04 2.592.6 5.662.06 8.312-.48 2.39-1.15 4.82-2.38 6.94-4.46 7.66-13.84 10.88-22.14 12.14-3.75.57-9.76.95-12.7-2.13-2.02-2.12-.56-4.16-.44-6.54.03-.63-.47-.78-1-.62-2.87.84-5.33 4.93-6.87 7.2-4.62 6.85-7.57 15.14-8.79 23.29-.43 2.87-1.07 6.88.78 9.42 2.32 3.19 7.6.75 10.29-.51.78-.37 1.56-.76 2.33-1.16.89-.46 1.78-.94 2.65-1.42 1.37-.75 2.71-1.55 4.04-2.35 8.13-4.86 46.98-25.05 52.1-34.6 5.34-9.97-8.7-14.59-17.93-17.972Z" transform="translate(-337.245 -216.062) scale(1.20146)" class="color477282 svgShape"/></g></g><path fill="#032f0f" d="M1358.95 1066.85h457.854v8.317H1358.95z" transform="matrix(8.29167 0 0 2.9975 -9966.464 1147.523)" class="color03222f svgShape"/><path fill="#032f0f" d="M1358.95 1066.85h457.854v8.317H1358.95z" transform="matrix(.8884 0 0 3.18558 -439.285 949.99)" class="color03222f svgShape"/><g transform="scale(-7.31483 7.31483) rotate(51.574 1273.164 -1383.307)" fill="#000000" class="color000 svgShape"><path fill="#697fa4" d="M1826.95 1063.05c.53-6.86 2.82-13.69 4.99-20.17 5.79-17.25 14.13-32.74 28.91-43.864 7.18-5.402 16.92-10.461 26.23-9.185 4.41.603 9.33 3.149 9.11 8.246-.38 9.113-11.31 16.233-17.99 20.663-16.32 10.83-46.62 22.56-51.25 44.31Z" class="color6993a4 svgShape"/><clipPath id="d"><path d="M1826.95 1063.05c.53-6.86 2.82-13.69 4.99-20.17 5.79-17.25 14.13-32.74 28.91-43.864 7.18-5.402 16.92-10.461 26.23-9.185 4.41.603 9.33 3.149 9.11 8.246-.38 9.113-11.31 16.233-17.99 20.663-16.32 10.83-46.62 22.56-51.25 44.31Z" fill="#000000" class="color000 svgShape"/></clipPath><g clip-path="url(#d)" fill="#000000" class="color000 svgShape"><path fill="#34a853" d="M1855.6 999.788c1.04 2.592.6 5.662.06 8.312-.48 2.39-1.15 4.82-2.38 6.94-4.46 7.66-13.84 10.88-22.14 12.14-3.75.57-9.76.95-12.7-2.13-2.02-2.12-.56-4.16-.44-6.54.03-.63-.47-.78-1-.62-2.87.84-5.33 4.93-6.87 7.2-4.62 6.85-7.57 15.14-8.79 23.29-.43 2.87-1.07 6.88.78 9.42 2.32 3.19 7.6.75 10.29-.51.78-.37 1.56-.76 2.33-1.16.89-.46 1.78-.94 2.65-1.42 1.37-.75 2.71-1.55 4.04-2.35 8.13-4.86 46.98-25.05 52.1-34.6 5.34-9.97-8.7-14.59-17.93-17.972Z" transform="translate(-337.245 -216.062) scale(1.20146)" class="color477282 svgShape"/></g></g><g transform="rotate(-51.574 4032.502 17503.81) scale(7.31483)" fill="#000000" class="color000 svgShape"><path fill="#697fa4" d="M1826.95 1063.05c.53-6.86 2.82-13.69 4.99-20.17 5.79-17.25 14.13-32.74 28.91-43.864 7.18-5.402 16.92-10.461 26.23-9.185 4.41.603 9.33 3.149 9.11 8.246-.38 9.113-11.31 16.233-17.99 20.663-16.32 10.83-46.62 22.56-51.25 44.31Z" class="color6993a4 svgShape"/><clipPath id="e"><path d="M1826.95 1063.05c.53-6.86 2.82-13.69 4.99-20.17 5.79-17.25 14.13-32.74 28.91-43.864 7.18-5.402 16.92-10.461 26.23-9.185 4.41.603 9.33 3.149 9.11 8.246-.38 9.113-11.31 16.233-17.99 20.663-16.32 10.83-46.62 22.56-51.25 44.31Z" fill="#000000" class="color000 svgShape"/></clipPath><g clip-path="url(#e)" fill="#000000" class="color000 svgShape"><path fill="#34a853" d="M1855.6 999.788c1.04 2.592.6 5.662.06 8.312-.48 2.39-1.15 4.82-2.38 6.94-4.46 7.66-13.84 10.88-22.14 12.14-3.75.57-9.76.95-12.7-2.13-2.02-2.12-.56-4.16-.44-6.54.03-.63-.47-.78-1-.62-2.87.84-5.33 4.93-6.87 7.2-4.62 6.85-7.57 15.14-8.79 23.29-.43 2.87-1.07 6.88.78 9.42 2.32 3.19 7.6.75 10.29-.51.78-.37 1.56-.76 2.33-1.16.89-.46 1.78-.94 2.65-1.42 1.37-.75 2.71-1.55 4.04-2.35 8.13-4.86 46.98-25.05 52.1-34.6 5.34-9.97-8.7-14.59-17.93-17.972Z" transform="translate(-337.245 -216.062) scale(1.20146)" class="color477282 svgShape"/></g></g><g transform="matrix(-6.03084 7.60194 7.39616 5.86759 5337.328 -15979.608)" fill="#000000" class="color000 svgShape"><path fill="#a6bde4" d="M1830.61 1062.95c-.26-10.01-.87-20.78.25-31.11 1.07-9.78 3.69-19.17 9.96-26.97 6.79-8.459 16.47-13.765 25.14-19.935 9.65-6.873 18.1-14.74 21.35-27.711.99-3.91 1.36-7.975.98-11.995-.41-4.286-1.79-8.419-3.64-12.283-.89-1.862-3.09-2.627-4.9-1.709-1.81.918-2.56 3.175-1.66 5.036 1.46 3.054 2.59 6.308 2.92 9.696.3 3.143-.01 6.319-.78 9.376-2.78 11.05-10.21 17.553-18.44 23.408-9.21 6.558-19.4 12.339-26.62 21.327-14.03 17.48-12.43 41.85-11.88 63.07.06 2.08 1.74 3.72 3.76 3.66 2.02-.05 3.61-1.78 3.56-3.86Z" class="colora6d2e4 svgShape"/><clipPath id="f"><path d="M1830.61 1062.95c-.26-10.01-.87-20.78.25-31.11 1.07-9.78 3.69-19.17 9.96-26.97 6.79-8.459 16.47-13.765 25.14-19.935 9.65-6.873 18.1-14.74 21.35-27.711.99-3.91 1.36-7.975.98-11.995-.41-4.286-1.79-8.419-3.64-12.283-.89-1.862-3.09-2.627-4.9-1.709-1.81.918-2.56 3.175-1.66 5.036 1.46 3.054 2.59 6.308 2.92 9.696.3 3.143-.01 6.319-.78 9.376-2.78 11.05-10.21 17.553-18.44 23.408-9.21 6.558-19.4 12.339-26.62 21.327-14.03 17.48-12.43 41.85-11.88 63.07.06 2.08 1.74 3.72 3.76 3.66 2.02-.05 3.61-1.78 3.56-3.86Z" fill="#000000" class="color000 svgShape"/></clipPath><g clip-path="url(#f)" fill="#000000" class="color000 svgShape"><path fill="#4285f4" d="M1847.02 924.905c5.25 5.935 2.64 36.785 5.98 43.864.79 1.693 1.42 7.919 3.45 8.598 1.57.522 3.33-1.597 4.19-2.574 3.06-3.452 5.16-7.904 7.03-12.068 4.85-10.735 8.71-23.987 7.13-35.85-.26-2.003-.72-4.053-1.52-5.914-3.52-8.121-12.71-5.808-18.62-2.034-2.73 1.749-5.23 3.807-7.64 5.978Z" transform="matrix(.89406 -.14872 .1447 .91894 83.332 350.673)" class="color79a5b6 svgShape"/></g></g><circle cx="1873.49" cy="922.267" r="28.654" fill="#697fa4" transform="scale(-11.62982 11.62982) rotate(51.574 1529.344 -1394.43)" class="color6993a4 svgShape"/><circle cx="1873.49" cy="922.267" r="28.654" fill="#ffffff" transform="scale(-8.4869 8.4869) rotate(51.574 1395.342 -1363.58)" class="colorfff svgShape"/><path fill="#697fa4" fill-rule="nonzero" d="M1754.55 918.17c0-2.929-.81-5.261-2.44-6.993-1.62-1.733-4.38-3.332-8.28-4.797-3.89-1.465-7.25-2.921-10.07-4.368-2.83-1.447-5.25-3.108-7.27-4.984a20.055 20.055 0 0 1-4.71-6.619c-1.13-2.536-1.69-5.555-1.69-9.057 0-6.038 1.93-10.986 5.79-14.845 3.86-3.859 8.98-6.109 15.38-6.753v-11.468h8.57v11.629c6.33.893 11.28 3.528 14.85 7.905 3.57 4.377 5.36 10.049 5.36 17.016h-15.49c0-4.288-.89-7.494-2.65-9.62-1.77-2.126-4.14-3.189-7.1-3.189-2.93 0-5.2.831-6.81 2.492-1.61 1.662-2.41 3.957-2.41 6.887 0 2.715.78 4.895 2.36 6.538 1.57 1.644 4.49 3.323 8.76 5.038 4.27 1.715 7.78 3.332 10.53 4.85 2.75 1.518 5.07 3.233 6.97 5.145a19.971 19.971 0 0 1 4.34 6.538c1 2.448 1.5 5.297 1.5 8.548 0 6.074-1.9 11.005-5.68 14.792-3.79 3.787-9.01 6.02-15.65 6.699v10.665h-8.52v-10.612c-7.33-.786-13-3.385-17.02-7.797-4.02-4.413-6.03-10.281-6.03-17.605h15.49c0 4.251 1.01 7.511 3.03 9.78 2.02 2.269 4.92 3.403 8.71 3.403 3.14 0 5.62-.83 7.45-2.492 1.82-1.661 2.73-3.903 2.73-6.726Z" transform="rotate(34.142 3057.923 -5638.418) scale(3.69177)" class="color6993a4 svgShape"/><g transform="matrix(-7.8268 .8811 .85725 7.61492 15298.663 -5486.908)" fill="#000000" class="color000 svgShape"><path fill="#a6bde4" d="M1821.75 1026.45c-.58 9.11 6.49 6.14 7.62-4.19 1.06-9.78 5.18-9.59 11.45-17.39 6.79-8.459 16.47-13.765 25.14-19.935 9.65-6.873 18.1-14.74 21.35-27.711.99-3.91 1.36-7.975.98-11.995-.41-4.286-1.79-8.419-3.64-12.283-.89-1.862-3.09-2.627-4.9-1.709-1.81.918-2.56 3.175-1.66 5.036 1.46 3.054 2.59 6.308 2.92 9.696.3 3.143-.01 6.319-.78 9.376-2.78 11.05-10.21 17.553-18.44 23.408-9.21 6.558-19.4 12.339-26.62 21.327-8.25 10.28-12.59 13.37-13.42 26.37Z" class="colora6d2e4 svgShape"/><clipPath id="g"><path d="M1821.75 1026.45c-.58 9.11 6.49 6.14 7.62-4.19 1.06-9.78 5.18-9.59 11.45-17.39 6.79-8.459 16.47-13.765 25.14-19.935 9.65-6.873 18.1-14.74 21.35-27.711.99-3.91 1.36-7.975.98-11.995-.41-4.286-1.79-8.419-3.64-12.283-.89-1.862-3.09-2.627-4.9-1.709-1.81.918-2.56 3.175-1.66 5.036 1.46 3.054 2.59 6.308 2.92 9.696.3 3.143-.01 6.319-.78 9.376-2.78 11.05-10.21 17.553-18.44 23.408-9.21 6.558-19.4 12.339-26.62 21.327-8.25 10.28-12.59 13.37-13.42 26.37Z" fill="#000000" class="color000 svgShape"/></clipPath><g clip-path="url(#g)" fill="#000000" class="color000 svgShape"><path fill="#4285f4" d="M1847.02 924.905c5.25 5.935 2.64 36.785 5.98 43.864.79 1.693 1.42 7.919 3.45 8.598 1.57.522 3.33-1.597 4.19-2.574 3.06-3.452 5.16-7.904 7.03-12.068 4.85-10.735 8.71-23.987 7.13-35.85-.26-2.003-.72-4.053-1.52-5.914-3.52-8.121-12.71-5.808-18.62-2.034-2.73 1.749-5.23 3.807-7.64 5.978Z" transform="matrix(.89406 -.14872 .1447 .91894 83.332 350.673)" class="color79a5b6 svgShape"/></g></g><circle cx="1873.49" cy="922.267" r="28.654" fill="#697fa4" transform="matrix(-9.38043 1.056 1.056 9.38043 18017.391 -7463.903)" class="color6993a4 svgShape"/><circle cx="1873.49" cy="922.267" r="28.654" fill="#ffffff" transform="scale(-6.76889 6.76889) rotate(6.423 4882.8 -17865.468)" class="colorfff svgShape"/><path fill="#697fa4" fill-rule="nonzero" d="M1754.55 918.17c0-2.929-.81-5.261-2.44-6.993-1.62-1.733-4.38-3.332-8.28-4.797-3.89-1.465-7.25-2.921-10.07-4.368-2.83-1.447-5.25-3.108-7.27-4.984a20.055 20.055 0 0 1-4.71-6.619c-1.13-2.536-1.69-5.555-1.69-9.057 0-6.038 1.93-10.986 5.79-14.845 3.86-3.859 8.98-6.109 15.38-6.753v-11.468h8.57v11.629c6.33.893 11.28 3.528 14.85 7.905 3.57 4.377 5.36 10.049 5.36 17.016h-15.49c0-4.288-.89-7.494-2.65-9.62-1.77-2.126-4.14-3.189-7.1-3.189-2.93 0-5.2.831-6.81 2.492-1.61 1.662-2.41 3.957-2.41 6.887 0 2.715.78 4.895 2.36 6.538 1.57 1.644 4.49 3.323 8.76 5.038 4.27 1.715 7.78 3.332 10.53 4.85 2.75 1.518 5.07 3.233 6.97 5.145a19.971 19.971 0 0 1 4.34 6.538c1 2.448 1.5 5.297 1.5 8.548 0 6.074-1.9 11.005-5.68 14.792-3.79 3.787-9.01 6.02-15.65 6.699v10.665h-8.52v-10.612c-7.33-.786-13-3.385-17.02-7.797-4.02-4.413-6.03-10.281-6.03-17.605h15.49c0 4.251 1.01 7.511 3.03 9.78 2.02 2.269 4.92 3.403 8.71 3.403 3.14 0 5.62-.83 7.45-2.492 1.82-1.661 2.73-3.903 2.73-6.726Z" transform="rotate(-36.423 4030.748 8750.767) scale(3.00218)" class="color6993a4 svgShape"/><ellipse cx="1498.54" cy="1043.24" fill="#a6bde4" rx="78.019" ry="11.433" transform="matrix(8.29167 0 0 12.02823 -10102.393 -8206.796)" class="colora6d2e4 svgShape"/><ellipse cx="1498.54" cy="1043.24" fill="#697fa4" rx="78.019" ry="11.433" transform="matrix(8.29167 0 0 12.02823 -10102.393 -8308.485)" class="color6993a4 svgShape"/><ellipse cx="1498.54" cy="1043.24" fill="#a6bde4" rx="78.019" ry="11.433" transform="matrix(8.29167 0 0 12.02823 -10102.393 -8419.68)" class="colora6d2e4 svgShape"/><ellipse cx="1498.54" cy="1043.24" fill="#697fa4" rx="78.019" ry="11.433" transform="matrix(8.29167 0 0 12.02823 -10102.393 -8521.37)" class="color6993a4 svgShape"/><ellipse cx="1498.54" cy="1043.24" fill="#a6bde4" rx="78.019" ry="11.433" transform="matrix(8.29167 0 0 12.02823 -10102.393 -8632.566)" class="colora6d2e4 svgShape"/><ellipse cx="1498.54" cy="1043.24" fill="#697fa4" rx="78.019" ry="11.433" transform="matrix(8.29167 0 0 12.02823 -10102.393 -8734.255)" class="color6993a4 svgShape"/><ellipse cx="1498.54" cy="1043.24" fill="#a6bde4" rx="78.019" ry="11.433" transform="matrix(8.29167 0 0 12.02823 -10102.393 -8845.45)" class="colora6d2e4 svgShape"/><ellipse cx="1498.54" cy="1043.24" fill="#697fa4" rx="78.019" ry="11.433" transform="matrix(8.29167 0 0 12.02823 -10102.393 -8947.14)" class="color6993a4 svgShape"/><ellipse cx="1498.54" cy="1043.24" fill="#a6bde4" rx="78.019" ry="11.433" transform="matrix(8.29167 0 0 12.02823 -10102.393 -9058.335)" class="colora6d2e4 svgShape"/><ellipse cx="1498.54" cy="1043.24" fill="#697fa4" rx="78.019" ry="11.433" transform="matrix(8.29167 0 0 12.02823 -10102.393 -9160.024)" class="color6993a4 svgShape"/><g transform="matrix(-3.26703 -4.47038 6.5361 -4.7767 1584.25 12559.576)" fill="#000000" class="color000 svgShape"><path fill="#faeaba" d="M1344.05 922.692c10.07 0 20.1 8.253 18.24 18.237-2.35 12.564-8.17 18.238-18.24 18.238-10.07 0-18.24-8.172-18.24-18.238 0-10.065 8.17-18.237 18.24-18.237Z" class="colorfad8ba svgShape"/><clipPath id="h"><path d="M1344.05 922.692c10.07 0 20.1 8.253 18.24 18.237-2.35 12.564-8.17 18.238-18.24 18.238-10.07 0-18.24-8.172-18.24-18.238 0-10.065 8.17-18.237 18.24-18.237Z" fill="#000000" class="color000 svgShape"/></clipPath><g clip-path="url(#h)" fill="#000000" class="color000 svgShape"><path fill="#d7c799" d="M1655.67 790.479c-.55 2.404-1.49 4.59-2.79 6.69-.59.961-1.19 2.019-2.08 2.729-2.3 1.818-5.91 1.969-8.64 1.331-1.27-.296-2.43-.842-3.51-1.572-2.24-1.526-4.74-4.998-7.76-2.898-.46.319-.86.733-1.19 1.179a6.87 6.87 0 0 0-1.04 2.047 7.432 7.432 0 0 0-.37 2.29c-.05 6.452 7.52 9.452 12.92 9.506 5.67.057 15.3-4.597 17.79-11.144 1.12-2.95-4.28-7.867-3.33-10.158Z" transform="matrix(-.86708 .98458 -1.18646 -.71955 3710.79 -100.301)" class="colord7b699 svgShape"/></g></g><g transform="rotate(-140.02 5450.676 5293.565) scale(6.79616)" fill="#000000" class="color000 svgShape"><path fill="#ea4335" d="M1461.15 763.464s-76.19 25.11-98.14 53.49c-21.94 28.381-33.52 116.793-33.52 116.793 10.11 9.754 21.42 10.341 34.36-1.61 0 0 27.13-64.756 40.64-81.287 9.33-11.414 25.49-9.255 40.44-17.898 15.03-8.689 16.22-69.488 16.22-69.488Z" class="colorf25c05 svgShape"/><clipPath id="i"><path d="M1461.15 763.464s-76.19 25.11-98.14 53.49c-21.94 28.381-33.52 116.793-33.52 116.793 10.11 9.754 21.42 10.341 34.36-1.61 0 0 27.13-64.756 40.64-81.287 9.33-11.414 25.49-9.255 40.44-17.898 15.03-8.689 16.22-69.488 16.22-69.488Z" fill="#000000" class="color000 svgShape"/></clipPath><g clip-path="url(#i)" fill="#000000" class="color000 svgShape"><path fill="#d21000" d="M1635.25 824.784c-5.13 5.632-13.44 9.357-20.11 12.667-18.3 9.078-39.35 14.813-59.9 14.588-8.99-.098-17.43-2.011-25.8-5.234-3.45-1.33-7.99-3.857-11.28-.711-3.28 3.146-2.9 8.762-2.44 12.853 1.65 14.721 12.13 22.024 26.54 22.239 28.94.432 72.47-37.291 92.99-56.402Z" transform="matrix(-.83426 .85874 -.6983 -.6784 3267.03 64.378)" class="colord23f00 svgShape"/></g></g><g transform="translate(-7883.453 -2993.491) scale(6.79616)" fill="#000000" class="color000 svgShape"><path fill="#ea4335" d="M1511.03 768c-8.15-7.432-55.57-10.479-66.49 9.039-13.95 24.923-17.19 140.496-17.19 140.496l117.69-43.184s-18.07-91.813-34.01-106.351Z" class="colorf25c05 svgShape"/><clipPath id="j"><path d="M1511.03 768c-8.15-7.432-55.57-10.479-66.49 9.039-13.95 24.923-17.19 140.496-17.19 140.496l117.69-43.184s-18.07-91.813-34.01-106.351Z" fill="#000000" class="color000 svgShape"/></clipPath><g clip-path="url(#j)" fill="#000000" class="color000 svgShape"><path fill="#d21000" d="M1439.16 894.454c5 .858 24.45-40.677 24.45-40.677s12.29 4.123 22.8 17.212c25.09 31.218 64.33 25.087 63.97 33.071-.42 9.092-35.03 3.839-41.6 8.972-13.46 10.505-29.86 18.379-45.13 25.908-5.17 2.55-12.71 6.969-18.71 4.808-9.12-3.287-9.57-18.929-9.34-26.636.22-7.662 1.67-15.251 3.56-22.658Z" transform="translate(-311.154 -210.534) scale(1.19725)" class="colord23f00 svgShape"/></g></g><g transform="matrix(-4.50593 -.28001 -.42152 6.78308 11485.25 -2440.221)" fill="#000000" class="color000 svgShape"><path fill="#fbbc05" d="M1733.45 1026.09c-34.11-8.11-100.29 19.31-122.1 24.11-16.21 3.58-3.83 16.93-3.83 16.93 40.26 7.76 104.5 6.84 125.49 0 13.01-4.24 15.73-37.41.44-41.04Z" class="colorf29f05 svgShape"/><clipPath id="k"><path d="M1733.45 1026.09c-34.11-8.11-100.29 19.31-122.1 24.11-16.21 3.58-3.83 16.93-3.83 16.93 40.26 7.76 104.5 6.84 125.49 0 13.01-4.24 15.73-37.41.44-41.04Z" fill="#000000" class="color000 svgShape"/></clipPath><g clip-path="url(#k)" fill="#000000" class="color000 svgShape"><path fill="#b10e00" d="M1621.93 1039.15c2.89 11.64 32.07 31.12 95.26 6.48 10.04-3.92 16.12-11.33 22.92-19.76 4.62-5.75 3.91 17.21 2.09 21.98-4.93 12.86-17.5 20.53-29.62 25.63-25.95 10.93-58.51 12.62-85.85 6.58-12.05-2.67-25.72-7.1-34.14-16.69-11.84-13.5-4.2-30.57 8.03-40.65 20.87-17.2-4.96 16.23 21.31 16.43Z" transform="matrix(1.02231 0 0 1 -31.443 4.037)" class="colorb16800 svgShape"/></g></g><g transform="matrix(-4.78555 -.50745 -.71663 6.75827 11888.142 -1919.222)" fill="#000000" class="color000 svgShape"><path fill="#fbbc05" d="M1733.45 1026.09c-34.11-8.11-100.29 19.31-122.1 24.11-16.21 3.58-3.83 16.93-3.83 16.93 42.14 6.07 104.5 6.84 125.49 0 13.01-4.24 15.73-37.41.44-41.04Z" class="colorf29f05 svgShape"/><clipPath id="l"><path d="M1733.45 1026.09c-34.11-8.11-100.29 19.31-122.1 24.11-16.21 3.58-3.83 16.93-3.83 16.93 42.14 6.07 104.5 6.84 125.49 0 13.01-4.24 15.73-37.41.44-41.04Z" fill="#000000" class="color000 svgShape"/></clipPath><g clip-path="url(#l)" fill="#000000" class="color000 svgShape"><path fill="#b10e00" d="M1621.93 1039.15c2.89 11.64 32.07 31.12 95.26 6.48 10.04-3.92 16.12-11.33 22.92-19.76 4.62-5.75 3.91 17.21 2.09 21.98-4.93 12.86-17.5 20.53-29.62 25.63-25.95 10.93-58.51 12.62-85.85 6.58-12.05-2.67-25.72-7.1-34.14-16.69-11.84-13.5-4.2-30.57 8.03-40.65 20.87-17.2-4.96 16.23 21.31 16.43Z" transform="matrix(1.02231 0 0 1 -31.443 4.037)" class="colorb16800 svgShape"/></g></g><path fill="#032f0f" d="M1715.67 955.7c78.35 2.457 62.23-57.942 47.14-69.66-15.09-11.718-104.05-26.78-137.66-.648-33.61 26.131-64 157.438-64 157.438 18.8 11.9 48.38 25.48 90.71-.82l7.63-102.333s32.77 15.289 56.18 16.023Z" transform="matrix(-6.79616 0 0 6.79616 14189.08 -3004.071)" class="color03222f svgShape"/><path fill="#024113" d="M1715.67 955.7c78.35 2.457 64.1-58.787 47.14-69.66-16.96-10.873-114.16-23.834-148.91 4.423-34.75 28.257-59.59 165.117-59.59 165.117 18.8 11.9 48.38 25.48 90.71-.82l13.51-107.689s33.73 7.895 57.14 8.629Z" transform="matrix(-6.79616 0 0 6.79616 13888.508 -3004.071)" class="color023341 svgShape"/><g transform="matrix(1.02345 -5.44153 7.95603 1.49638 -6175.661 9035.467)" fill="#000000" class="color000 svgShape"><path fill="#faeaba" d="M1344.05 922.692c10.07 0 20.1 8.253 18.24 18.237-2.35 12.564-8.17 18.238-18.24 18.238-10.07 0-18.24-8.172-18.24-18.238 0-10.065 8.17-18.237 18.24-18.237Z" class="colorfad8ba svgShape"/><clipPath id="m"><path d="M1344.05 922.692c10.07 0 20.1 8.253 18.24 18.237-2.35 12.564-8.17 18.238-18.24 18.238-10.07 0-18.24-8.172-18.24-18.238 0-10.065 8.17-18.237 18.24-18.237Z" fill="#000000" class="color000 svgShape"/></clipPath><g clip-path="url(#m)" fill="#000000" class="color000 svgShape"><path fill="#d7c799" d="M1655.67 790.479c-.55 2.404-1.49 4.59-2.79 6.69-.59.961-1.19 2.019-2.08 2.729-2.3 1.818-5.91 1.969-8.64 1.331-1.27-.296-2.43-.842-3.51-1.572-2.24-1.526-4.74-4.998-7.76-2.898-.46.319-.86.733-1.19 1.179a6.87 6.87 0 0 0-1.04 2.047 7.432 7.432 0 0 0-.37 2.29c-.05 6.452 7.52 9.452 12.92 9.506 5.67.057 15.3-4.597 17.79-11.144 1.12-2.95-4.28-7.867-3.33-10.158Z" transform="matrix(-.86708 .98458 -1.18646 -.71955 3710.79 -100.301)" class="colord7b699 svgShape"/></g></g><circle cx="1344.05" cy="940.929" r="18.237" fill="#faeaba" transform="matrix(-.51171 -1.7962 3.48206 -.992 125.694 6372.112)" class="colorfad8ba svgShape"/><path fill="#ea4335" d="M1462.05 809.45s-92.96-37.211-135 12.073c-19.66 23.043 2.44 112.224 2.44 112.224 10.11 9.754 21.42 10.341 34.36-1.61 0 0-8.45-66.083 3.64-79.826 12.08-13.742 52.74 3.702 68.85-2.628 32.51-12.781 25.71-40.233 25.71-40.233Z" transform="scale(6.7962) rotate(-88.224 619.78 1192.843)" class="colorf25c05 svgShape"/><g transform="translate(-7883.453 -2993.491) scale(6.79616)" fill="#000000" class="color000 svgShape"><path fill="#faeaba" d="m1478.83 745.675-16.63 1.037c1.22 6.507.52 12.515-1.91 18.071 14 23.006 22.93 21.933 23.55-1.994-7.27-4.47-6.44-11.206-5.01-17.114Z" class="colorfad8ba svgShape"/><clipPath id="n"><path d="m1478.83 745.675-16.63 1.037c1.22 6.507.52 12.515-1.91 18.071 14 23.006 22.93 21.933 23.55-1.994-7.27-4.47-6.44-11.206-5.01-17.114Z" fill="#000000" class="color000 svgShape"/></clipPath><g clip-path="url(#n)" fill="#000000" class="color000 svgShape"><path fill="#d7c799" d="M1496.99 807.584c-2.16 1.614-4.67 2.889-7.27 3.621-1.95.548-4.03.967-6.05 1.036-1.87.064-3.9-.142-5.51-1.168-3.3-2.099-3.31-6.805-1.71-9.972 3.37-6.664 12.67-9.341 18.59-4.476 1.83 1.504 1.16 8.741 1.95 10.959Z" transform="rotate(-23.57 1126.885 1606.997) scale(1.19725)" class="colord7b699 svgShape"/></g></g><path fill="#faeaba" d="M1470.8 716.048c9.48 0 17.17 7.695 17.17 17.173 0 9.479-1.24 20.426-10.72 20.426s-23.62-10.947-23.62-20.426c0-9.478 7.69-17.173 17.17-17.173Z" transform="matrix(5.85377 0 0 6.79616 -6509.258 -2970.672)" class="colorfad8ba svgShape"/><path fill="#032f0f" d="M1488.58 784.131c3.46 2.285 8.82 2.497 12.78 2.408 3.72-.083 7.19-.695 10.53-2.379 2.22-1.118 4.21-2.679 5.86-4.534 12.53-14.057-9.59-35.551-23.77-23.587-2.08 1.75-3.6 4.008-4.69 6.479-4.11-2.396-14.17-2.51-19.41 2.164-12.44 11.088-10.52 20.426-6.22 32.734-5.63 1.744-11.77 6.631-14.26 11.678-26.4 53.484 67.11 41.747 41.07-12.661-1.54-3.219-2.29-8.704-1.89-12.302Z" transform="translate(-10276.735 -4523.006) scale(8.29167)" class="color03222f svgShape"/><path fill="#a6bde4" d="M1782.01 750.082c-3.29-22.253-62.82-19.007-76.19.251-12.81 18.452-16.26 80.549-6.13 97.136 11.72 19.199 98.19 16.133 85.94-2.735-26.72-41.153.3-68.152-3.62-94.652Z" transform="rotate(-26.528 526.5 19630.473) scale(6.44597)" class="colora6d2e4 svgShape"/><path fill="#ffffff" fill-rule="nonzero" d="M1775.6 886.538h34.13v12.916h-50.21v-78.031h16.08v65.115ZM1815.52 869.925c0-5.753 1.11-10.88 3.32-15.381 2.22-4.502 5.41-7.986 9.57-10.451 4.16-2.465 8.99-3.698 14.5-3.698 7.82 0 14.21 2.394 19.16 7.182 4.95 4.787 7.71 11.29 8.28 19.507l.1 3.966c0 8.896-2.48 16.033-7.45 21.41-4.96 5.377-11.62 8.066-19.99 8.066-8.36 0-15.03-2.68-20.01-8.039-4.99-5.359-7.48-12.648-7.48-21.866v-.696Zm15.49 1.125c0 5.502 1.04 9.709 3.11 12.621 2.07 2.912 5.04 4.368 8.89 4.368 3.76 0 6.69-1.438 8.79-4.314 2.11-2.876 3.17-7.476 3.17-13.8 0-5.395-1.06-9.576-3.17-12.541-2.1-2.965-5.07-4.448-8.89-4.448-3.79 0-6.72 1.474-8.79 4.421-2.07 2.948-3.11 7.512-3.11 13.693ZM1913.6 899.454c-.72-1.393-1.24-3.126-1.56-5.198-3.75 4.18-8.63 6.27-14.63 6.27-5.68 0-10.39-1.643-14.12-4.93-3.73-3.287-5.6-7.432-5.6-12.434 0-6.145 2.28-10.861 6.83-14.148 4.56-3.287 11.14-4.949 19.75-4.984h7.13v-3.323c0-2.68-.69-4.824-2.06-6.431-1.38-1.608-3.55-2.412-6.52-2.412-2.6 0-4.65.625-6.13 1.876-1.49 1.25-2.23 2.965-2.23 5.145h-15.48c0-3.359 1.03-6.467 3.1-9.325 2.08-2.859 5.01-5.101 8.79-6.726 3.79-1.626 8.04-2.439 12.76-2.439 7.14 0 12.81 1.796 17.01 5.386 4.2 3.591 6.3 8.638 6.3 15.14v25.135c.04 5.502.8 9.665 2.31 12.487v.911h-15.65Zm-12.81-10.772c2.28 0 4.39-.509 6.32-1.527 1.93-1.019 3.36-2.385 4.29-4.1v-9.968h-5.79c-7.75 0-11.88 2.679-12.38 8.039l-.05.911c0 1.929.68 3.519 2.03 4.769 1.36 1.251 3.22 1.876 5.58 1.876ZM1953.09 841.467l.49 6.699c4.14-5.181 9.7-7.771 16.66-7.771 6.15 0 10.72 1.804 13.72 5.413s4.54 9.004 4.61 16.185v37.461h-15.49v-37.086c0-3.287-.71-5.672-2.14-7.154-1.43-1.483-3.81-2.225-7.13-2.225-4.36 0-7.63 1.858-9.8 5.574v40.891h-15.49v-57.987h14.57Z" transform="matrix(.95609 -.47727 .47727 .95609 1290.295 1706.634)" class="colorfff svgShape"/><path fill="#ffffff" d="M1760.83 772.765c-.22.255-.55.61-.84.847-1.55 1.23-3.85 2.366-4.51 2.709-.77.398-1.04.536-1.83.928-9.23 4.612-18.77 8.786-27.15 14.89-1.74 1.267-5.02 3.405-6.71 5.845-.91 1.316-1.39 2.758-1.25 4.175.13 1.417.98 2.409 2.32 2.806 2.26.669 6.04-.167 7.34-.403 7.54-1.368 14.88-3.753 22.28-5.718 2.02-.539 4.11-1.106 6.2-1.294l.28-.026c-.39.341-.78.618-.93.737-2.44 1.921-5.15 3.51-7.85 5.048-8.2 4.69-17.18 8.472-24.67 14.31-.89.699-1.76 1.435-2.58 2.233-.62.615-1.23 1.276-1.72 2.003-.72 1.046-.95 1.966-.95 2.675.01.89.34 1.658 1.02 2.201.59.478 1.52.795 2.58.961 2.23.349 5.11.098 6.26.002 2.1-.175 4.19-.476 6.26-.832a101.6 101.6 0 0 0 11.57-2.684c5.6-1.648 13.73-5.296 20.27-1.836.41.219.87-.1 1.02-.712.15-.612-.07-1.288-.48-1.507-6.82-3.604-15.29.027-21.12 1.743a100.174 100.174 0 0 1-11.44 2.654c-2.05.351-4.1.648-6.17.821-1.34.112-5.13.47-7.25-.294a2.579 2.579 0 0 1-.74-.385 1.438 1.438 0 0 1-.17-.192c0-.042.02-.118.04-.168.08-.235.22-.487.42-.772.43-.625.95-1.187 1.49-1.716a28.31 28.31 0 0 1 2.44-2.111c7.44-5.797 16.35-9.539 24.5-14.196 2.75-1.573 5.53-3.203 8.02-5.167.33-.26 1.61-1.212 2.12-2.043.29-.462.4-.95.4-1.359-.01-.42-.11-.829-.39-1.181-.2-.254-.48-.443-.82-.534-.49-.129-1.12-.059-1.5-.025-2.16.193-4.31.771-6.4 1.326-7.36 1.958-14.68 4.336-22.19 5.699-1.05.19-3.81.825-5.91.603-.62-.064-1.17-.194-1.58-.465-.19-.129-.37-.254-.39-.521-.04-.451.09-.883.29-1.315.28-.608.71-1.189 1.21-1.751 1.69-1.892 4.17-3.495 5.58-4.522 8.33-6.059 17.8-10.192 26.96-14.77a145.2 145.2 0 0 0 1.85-.936c.85-.439 4.2-2.126 5.67-3.709.4-.436.68-.892.82-1.304.18-.501.2-.992.1-1.454a2.127 2.127 0 0 0-.62-1.134c-.31-.289-.79-.57-1.51-.781-.4-.117-.79-.192-1.2-.253a26.34 26.34 0 0 0-2.37-.215c-1.33-.072-2.67-.121-4-.074-2.2.078-4.41.28-6.6.47-4.25.367-8.48.892-12.7 1.507-6.14.895-12.48 1.657-18.48 3.299-.43.118-.72.734-.64 1.374.08.639.5 1.062.93.943 5.96-1.629 12.25-2.382 18.35-3.271 4.2-.612 8.4-1.134 12.63-1.499 2.18-.189 4.37-.389 6.55-.466 1.29-.046 2.61.003 3.9.073.76.041 1.52.094 2.27.205.36.053.7.117 1.05.219.25.073.49.189.67.289Z" transform="rotate(-26.528 3650.47 25268.36) scale(8.06906 5.46931)" class="colorfff svgShape"/><path fill="#ffffff" d="M1716.33 774.873c8.16-1.306 16.83-1.399 25.08-1.674a.996.996 0 0 0 .96-1.033.994.994 0 0 0-1.03-.966c-8.32.278-17.09.379-25.33 1.698-.54.087-.92.6-.83 1.145.09.545.6.917 1.15.83Z" transform="rotate(-26.528 526.5 19630.473) scale(6.44597)" class="colorfff svgShape"/><path fill="#ffffff" d="M1748.28 836.372c-2.06.58-4.08 1.27-6 2.267-1.28.663-3.8 2.314-5.14 4.189-.7.99-1.09 2.073-1.09 3.105.01.794.22 1.6.76 2.364 1.1 1.542 2.51 1.743 3.94 1.2 1.74-.661 3.5-2.514 4.39-3.54 1.85-2.107 3.33-4.573 4.46-7.209 1.29-.35 2.59-.665 3.89-.996-.23 2.449.26 4.854 1.74 6.762 1.34 1.717 3.66 2.705 5.81 2.168 1.5-.378 2.93-1.664 3.64-3.178.18-.384.32-.782.41-1.187 1.25-.155 2.5-.32 3.73-.175.24.029.44.089.6.193.05.038.12.048.12.11.03.139-.06.269-.16.423-.25.428-.55.82-.85 1.215-.4.521-.41 1.38-.02 1.917.38.536 1.01.548 1.41.027.36-.475.72-.952 1.03-1.466.68-1.164.74-2.398.37-3.358-.33-.847-1.06-1.613-2.32-1.762-1.34-.157-2.7.034-4.05.195l-.02-.045c-.16-.463-.48-.929-.93-1.31-.76-.631-1.94-1.073-3-1.078-1.3-.007-2.37.7-2.75 1.905a2.433 2.433 0 0 0-.02 1.461c.13.461.42.907.89 1.217.89.588 2.74.721 3.27.732.11.002.22.002.33.001-.5.731-1.26 1.299-2.05 1.497-1.5.376-3.13-.27-4.06-1.469-1.16-1.49-1.37-3.443-1-5.358 1.42-.398 2.81-.849 4.17-1.417 1.21-.505 2.88-1.243 4.11-2.281 1.04-.873 1.76-1.99 1.96-3.25.13-.866.02-1.542-.2-2.072-.23-.538-.6-.951-1.09-1.208-.61-.316-1.46-.384-2.34-.255-1.18.173-2.42.674-3.05 1.086-2.22 1.453-4.11 4.138-5.06 7.063-1.13.302-2.26.581-3.39.867a37.946 37.946 0 0 0 1.6-7.613c.08-.74-.3-1.429-.84-1.537-.55-.107-1.06.406-1.13 1.146-.31 2.883-.99 5.856-2.07 8.654Zm-1.47 3.208c-1.3.437-2.58.949-3.82 1.591-1.09.567-3.26 1.938-4.41 3.541-.4.564-.73 1.133-.33 1.699.54.76 1.25.743 1.96.476 1.45-.552 2.9-2.148 3.65-3.004a22.957 22.957 0 0 0 2.95-4.303Zm17.09-10.041c-.05-.03-.14-.085-.21-.107a2.272 2.272 0 0 0-.75-.078c-1.06.035-2.31.497-2.9.88-1.32.86-2.49 2.249-3.33 3.858.84-.271 1.67-.57 2.48-.911 1.07-.446 2.55-1.074 3.64-1.992.52-.432.96-.881 1.06-1.505.01-.044.01-.104.01-.145Z" transform="matrix(5.76731 -2.879 2.12381 4.2545 -8079.25 3569.896)" class="colorfff svgShape"/><path fill="#ffffff" d="M1750.1 838.638c-1.13 2.822-2.67 5.463-4.13 8.125-.32.601-.23 1.451.21 1.896.45.445 1.07.318 1.4-.283 1.51-2.765 3.1-5.515 4.27-8.446.27-.657.09-1.481-.4-1.837-.48-.357-1.09-.112-1.35.545ZM1752.08 843.146c-.54 1.275-1.43 2.445-2.16 3.617-.36.571-.31 1.427.12 1.911.42.484 1.05.413 1.4-.158.81-1.294 1.77-2.606 2.37-4.014.28-.648.12-1.478-.36-1.852-.48-.374-1.09-.152-1.37.496Z" transform="matrix(5.76731 -2.879 2.12381 4.2545 -8079.25 3569.896)" class="colorfff svgShape"/><path fill="#ffffff" d="M1742.4 854.158c5.9-2.525 12.51-3.478 18.77-4.701.54-.105.89-.631.79-1.173a1.005 1.005 0 0 0-1.18-.789c-6.39 1.249-13.14 2.244-19.17 4.824-.51.217-.74.805-.53 1.313.22.507.81.743 1.32.526Z" transform="rotate(-26.528 526.5 19630.473) scale(6.44597)" class="colorfff svgShape"/><circle cx="1344.05" cy="940.929" r="18.237" fill="#faeaba" transform="matrix(-2.08592 -1.076 2.23056 -4.3241 4002.847 7460.862)" class="colorfad8ba svgShape"/><g transform="rotate(21.573 22342.916 -21775.924) scale(8.29167)" fill="#000000" class="color000 svgShape"><ellipse cx="1793.36" cy="975.241" fill="#faeaba" rx="51.634" ry="43.883" class="colorfad8ba svgShape"/><clipPath id="o"><ellipse cx="1793.36" cy="975.241" rx="51.634" ry="43.883" fill="#000000" class="color000 svgShape"/></clipPath><g clip-path="url(#o)" fill="#000000" class="color000 svgShape"><path fill="#e2d2a3" d="M1704.74 876.133c-2.5 5.936 36.92-14.779 36.61-8.397-.35 7.385-.29 15.368 1.39 22.602 3.06 13.105 15.34 25.403 28.73 27.677 6.83 1.16 13.74.106 20.42-1.466 3.02-.712 7.9-3.05 10.83-1.224 6.03 3.743.26 14.599-2.45 18.334a29.481 29.481 0 0 1-2.77 3.289c-23.75 24.346-63.79 17.501-83.58-8.35-11.35-14.825-14.59-34.71-9.18-52.465Z" transform="rotate(-30.135 1916.187 903.624)" class="colore2c0a3 svgShape"/></g></g><g transform="matrix(2.70633 3.70677 -6.69673 4.88933 6366.592 -7917.92)" fill="#000000" class="color000 svgShape"><path fill="#fbbc05" d="M1792.86 937.145c28.5 0 52.13 13.876 52.13 38.096s-24.43 41.449-52.9 40.709c-42.51-1.1-6.68-12.67-27.28-34.035-29.82-30.943-.45-44.77 28.05-44.77Z" class="colorf29f05 svgShape"/><clipPath id="p"><path d="M1792.86 937.145c28.5 0 52.13 13.876 52.13 38.096s-24.43 41.449-52.9 40.709c-42.51-1.1-6.68-12.67-27.28-34.035-29.82-30.943-.45-44.77 28.05-44.77Z" fill="#000000" class="color000 svgShape"/></clipPath><g clip-path="url(#p)" fill="#000000" class="color000 svgShape"><path fill="#b10e00" d="M1827.27 906.695c1.64 8.39 1.33 18.982-2.25 26.786-6.99 15.229-26.01 22.891-41.91 19.578-4.96-1.033-9.47-3.361-13.08-6.927-1.88-1.858-3.89-6.339-7.09-5.957-2.44.292-3.61 3.379-4.26 5.353-1.96 6.014-.6 12.674 3.09 17.767 5.79 8.005 16.07 12.3 25.56 13.758 22.11 3.397 48.71-6.184 57.15-28.468 4.41-11.666-10.97-31.513-17.21-41.89Z" transform="matrix(1.45267 -.59975 1.19092 .75197 -1923.32 1350.98)" class="colorb16800 svgShape"/></g></g><path fill="#024113" d="M1810.13 818.477c0-5.419-9.48-17.359-15.8-17.359-19.44 0-54.33 7.546-73.77 7.546-6.32 0-11.44 4.394-11.44 9.813 0 21.484-7.11 67.608-7.11 89.092 0 5.419 12.23 14.677 18.55 14.677h78.13c6.32 0 11.44-4.394 11.44-9.813v-93.956Z" transform="matrix(6.66565 -.1716 -2.87974 7.85184 -5020.665 -3671.557)" class="color023341 svgShape"/><path fill="#697fa4" d="M1810.13 818.477c0-5.419-5.12-9.813-11.44-9.813h-78.13c-6.32 0-11.44 4.394-11.44 9.813v93.956c0 5.419 5.12 9.813 11.44 9.813h78.13c6.32 0 11.44-4.394 11.44-9.813v-93.956Z" transform="matrix(6.66565 -.1716 -2.87974 7.85184 -5051.829 -3737.285)" class="color6993a4 svgShape"/><path fill="#ffffff" d="M1810.13 849.207c0-22.391-5.43-40.543-12.14-40.543h-76.73c-6.7 0-12.14 18.152-12.14 40.543v32.497c0 22.39 5.44 40.542 12.14 40.542h76.73c6.71 0 12.14-18.152 12.14-40.542v-32.497Z" transform="matrix(5.57894 -.14363 -.6192 1.6883 -4993.58 1268.405)" class="colorfff svgShape"/><path fill="#024113" fill-rule="nonzero" d="M1876.62 735.374c0 10.79-2.24 19.043-6.7 24.759-4.47 5.717-11.01 8.575-19.62 8.575-8.5 0-15-2.805-19.5-8.414-4.51-5.609-6.81-13.648-6.92-24.117v-14.362c0-10.898 2.26-19.169 6.78-24.814 4.52-5.645 11.03-8.467 19.54-8.467 8.5 0 15 2.795 19.5 8.387 4.51 5.591 6.81 13.621 6.92 24.09v14.363Zm-15.49-15.757c0-6.467-.88-11.174-2.65-14.121-1.77-2.948-4.53-4.422-8.28-4.422-3.65 0-6.34 1.403-8.07 4.207-1.73 2.805-2.65 7.191-2.76 13.157v18.972c0 6.36.87 11.085 2.6 14.175 1.73 3.091 4.51 4.636 8.33 4.636 3.79 0 6.52-1.483 8.2-4.448 1.68-2.966 2.56-7.503 2.63-13.613v-18.543ZM1888.52 760.026c0-2.465.83-4.466 2.49-6.002 1.66-1.537 3.74-2.305 6.24-2.305 2.54 0 4.64.768 6.3 2.305 1.66 1.536 2.49 3.537 2.49 6.002 0 2.43-.82 4.404-2.46 5.922-1.65 1.519-3.76 2.278-6.33 2.278-2.54 0-4.63-.759-6.27-2.278-1.64-1.518-2.46-3.492-2.46-5.922ZM1921.26 729.264l4.5-39.659h43.73v12.916h-31.03l-1.93 16.775c3.68-1.965 7.6-2.948 11.74-2.948 7.43 0 13.26 2.305 17.47 6.914 4.22 4.609 6.33 11.058 6.33 19.347 0 5.037-1.07 9.548-3.19 13.532-2.13 3.983-5.17 7.074-9.14 9.271-3.97 2.197-8.65 3.296-14.04 3.296-4.72 0-9.09-.956-13.13-2.867-4.04-1.912-7.23-4.6-9.57-8.066-2.34-3.465-3.58-7.413-3.72-11.844h15.33c.32 3.252 1.45 5.779 3.4 7.584 1.94 1.804 4.49 2.706 7.63 2.706 3.51 0 6.2-1.259 8.1-3.778 1.89-2.519 2.84-6.083 2.84-10.692 0-4.43-1.09-7.824-3.27-10.183-2.18-2.358-5.27-3.537-9.27-3.537-3.68 0-6.67.965-8.95 2.894l-1.5 1.394-12.33-3.055Z" transform="matrix(1.6539 -.05007 -.68602 1.6762 1756.784 1357.849)" class="color023341 svgShape"/><path fill="#ffffff" d="M1734.96 862.572c0-2.915-2.9-5.278-6.47-5.278h-4.4c-3.57 0-6.47 2.363-6.47 5.278v6.786c0 2.914 2.9 5.277 6.47 5.277h4.4c3.57 0 6.47-2.363 6.47-5.277v-6.786Z" transform="matrix(6.33572 -.16311 -2.87974 7.85184 -4476.664 -3787.023)" class="colorfff svgShape"/><path fill="#ffffff" d="M1734.96 862.572c0-2.915-2.9-5.278-6.47-5.278h-4.4c-3.57 0-6.47 2.363-6.47 5.278v6.786c0 2.914 2.9 5.277 6.47 5.277h4.4c3.57 0 6.47-2.363 6.47-5.277v-6.786Z" transform="matrix(6.33572 -.16311 -2.87974 7.85184 -4543.995 -3603.562)" class="colorfff svgShape"/><path fill="#ffffff" d="M1734.96 862.572c0-2.915-2.9-5.278-6.47-5.278h-4.4c-3.57 0-6.47 2.363-6.47 5.278v6.786c0 2.914 2.9 5.277 6.47 5.277h4.4c3.57 0 6.47-2.363 6.47-5.277v-6.786Z" transform="matrix(6.33572 -.16311 -2.87974 7.85184 -4611.212 -3420.069)" class="colorfff svgShape"/><path fill="#ffffff" d="M1734.96 862.572c0-2.915-2.9-5.278-6.47-5.278h-4.4c-3.57 0-6.47 2.363-6.47 5.278v6.786c0 2.914 2.9 5.277 6.47 5.277h4.4c3.57 0 6.47-2.363 6.47-5.277v-6.786Z" transform="matrix(6.33572 -.16311 -2.87974 7.85184 -4309.171 -3791.349)" class="colorfff svgShape"/><path fill="#ffffff" d="M1734.96 862.572c0-2.915-2.9-5.278-6.47-5.278h-4.4c-3.57 0-6.47 2.363-6.47 5.278v6.786c0 2.914 2.9 5.277 6.47 5.277h4.4c3.57 0 6.47-2.363 6.47-5.277v-6.786Z" transform="matrix(6.33572 -.16311 -2.87974 7.85184 -4376.504 -3607.876)" class="colorfff svgShape"/><path fill="#ffffff" d="M1734.96 862.572c0-2.915-2.9-5.278-6.47-5.278h-4.4c-3.57 0-6.47 2.363-6.47 5.278v6.786c0 2.914 2.9 5.277 6.47 5.277h4.4c3.57 0 6.47-2.363 6.47-5.277v-6.786Z" transform="matrix(6.33572 -.16311 -2.87974 7.85184 -4443.719 -3424.395)" class="colorfff svgShape"/><path fill="#ffffff" d="M1734.96 862.572c0-2.915-2.9-5.278-6.47-5.278h-4.4c-3.57 0-6.47 2.363-6.47 5.278v6.786c0 2.914 2.9 5.277 6.47 5.277h4.4c3.57 0 6.47-2.363 6.47-5.277v-6.786Z" transform="matrix(6.33572 -.16311 -2.87974 7.85184 -4141.68 -3795.663)" class="colorfff svgShape"/><path fill="#ffffff" d="M1734.96 862.572c0-2.915-2.9-5.278-6.47-5.278h-4.4c-3.57 0-6.47 2.363-6.47 5.278v6.786c0 2.914 2.9 5.277 6.47 5.277h4.4c3.57 0 6.47-2.363 6.47-5.277v-6.786Z" transform="matrix(6.33572 -.16311 -2.87974 7.85184 -4003.82 -3799.194)" class="colorfff svgShape"/><path fill="#ffffff" d="M1734.96 862.572c0-2.915-2.9-5.278-6.47-5.278h-4.4c-3.57 0-6.47 2.363-6.47 5.278v6.786c0 2.914 2.9 5.277 6.47 5.277h4.4c3.57 0 6.47-2.363 6.47-5.277v-6.786Z" transform="matrix(6.33572 -.16311 -2.87974 7.85184 -4208.895 -3612.182)" class="colorfff svgShape"/><path fill="#ffffff" d="M1734.96 862.572c0-2.915-2.9-5.278-6.47-5.278h-4.4c-3.57 0-6.47 2.363-6.47 5.278v6.786c0 2.914 2.9 5.277 6.47 5.277h4.4c3.57 0 6.47-2.363 6.47-5.277v-6.786Z" transform="matrix(6.33572 -.16311 -2.87974 7.85184 -4276.228 -3428.709)" class="colorfff svgShape"/><path fill="#ffffff" d="M1734.96 859.542c0-1.241-3.59-2.248-8.03-2.248h-1.28c-4.44 0-8.03 1.007-8.03 2.248v12.845c0 1.242 3.59 2.248 8.03 2.248h1.28c4.44 0 8.03-1.006 8.03-2.248v-12.845Z" transform="matrix(5.11077 -.13158 -6.76028 18.43244 1370.212 -12740.884)" class="colorfff svgShape"/><g transform="matrix(4.35651 3.45656 -2.38992 3.01216 -966.693 -6168.537)" fill="#000000" class="color000 svgShape"><ellipse cx="1793.36" cy="975.241" fill="#faeaba" rx="51.634" ry="43.883" class="colorfad8ba svgShape"/><clipPath id="q"><ellipse cx="1793.36" cy="975.241" rx="51.634" ry="43.883" fill="#000000" class="color000 svgShape"/></clipPath><g clip-path="url(#q)" fill="#000000" class="color000 svgShape"><path fill="#e2d2a3" d="M1750.19 835.684c-3.24 1.55 48.1-16.766 27.07 9.99-9.29 11.817-.94 27.206 8.91 37.127 4.98 5.012 10.7 8.995 17.28 11.644 2.47.995 5.02 1.782 7.53 2.672 1.24.442 2.94 1.03 1.12 2.085-10.05 5.835-24.6 3.473-34.2-1.583-21.66-11.4-33.9-38.53-23.74-61.556" transform="matrix(.86186 -.98184 .92258 1.69402 -557.012 1264.58)" class="colore2c0a3 svgShape"/></g></g><circle cx="1347.25" cy="1062.46" r="62.256" fill="#4b865b" transform="translate(-8065.726 -3610.823) scale(7.30725)" class="color4b7686 svgShape"/><circle cx="1347.25" cy="1062.46" r="62.256" fill="#697fa4" transform="translate(-8138.908 -3610.823) scale(7.30725)" class="color6993a4 svgShape"/><circle cx="1347.25" cy="1062.46" r="62.256" fill="#ffffff" transform="translate(-6002.551 -1926.051) scale(5.72153)" class="colorfff svgShape"/><path fill="#697fa4" fill-rule="nonzero" d="M1754.55 918.17c0-2.929-.81-5.261-2.44-6.993-1.62-1.733-4.38-3.332-8.28-4.797-3.89-1.465-7.25-2.921-10.07-4.368-2.83-1.447-5.25-3.108-7.27-4.984a20.055 20.055 0 0 1-4.71-6.619c-1.13-2.536-1.69-5.555-1.69-9.057 0-6.038 1.93-10.986 5.79-14.845 3.86-3.859 8.98-6.109 15.38-6.753v-11.468h8.57v11.629c6.33.893 11.28 3.528 14.85 7.905 3.57 4.377 5.36 10.049 5.36 17.016h-15.49c0-4.288-.89-7.494-2.65-9.62-1.77-2.126-4.14-3.189-7.1-3.189-2.93 0-5.2.831-6.81 2.492-1.61 1.662-2.41 3.957-2.41 6.887 0 2.715.78 4.895 2.36 6.538 1.57 1.644 4.49 3.323 8.76 5.038 4.27 1.715 7.78 3.332 10.53 4.85 2.75 1.518 5.07 3.233 6.97 5.145a19.971 19.971 0 0 1 4.34 6.538c1 2.448 1.5 5.297 1.5 8.548 0 6.074-1.9 11.005-5.68 14.792-3.79 3.787-9.01 6.02-15.65 6.699v10.665h-8.52v-10.612c-7.33-.786-13-3.385-17.02-7.797-4.02-4.413-6.03-10.281-6.03-17.605h15.49c0 4.251 1.01 7.511 3.03 9.78 2.02 2.269 4.92 3.403 8.71 3.403 3.14 0 5.62-.83 7.45-2.492 1.82-1.661 2.73-3.903 2.73-6.726Z" transform="rotate(-27.33 4124.498 20349.973) scale(5.39289)" class="color6993a4 svgShape"/><path fill="#697fa4" d="M1502.81 745.88c0-14.505-14.72-26.282-32.86-26.282-18.13 0-32.85 11.777-32.85 26.282 0 7.722 4.25 15.052 11.61 20.046l-6.06 11.73 21.75-5.872c1.83.252 3.69.379 5.55.379 18.14 0 32.86-11.777 32.86-26.283Z" transform="matrix(-7.5187 0 0 7.5187 12716.13 -4018.201)" class="color6993a4 svgShape"/><path fill="#ffffff" fill-rule="nonzero" d="M1488.3 690.711c0-1.354.16-2.433.49-3.236.33-.802.93-1.593 1.81-2.372.87-.778 1.46-1.412 1.75-1.9.29-.489.43-1.004.43-1.545 0-1.635-.75-2.452-2.26-2.452-.72 0-1.29.22-1.72.66-.43.44-.66 1.047-.68 1.821h-4.2c.02-1.848.61-3.294 1.79-4.338 1.17-1.045 2.78-1.567 4.81-1.567 2.05 0 3.64.496 4.77 1.487 1.13.991 1.7 2.391 1.7 4.2 0 .822-.18 1.598-.55 2.329-.37.73-1.01 1.54-1.93 2.43l-1.18 1.117c-.73.706-1.15 1.533-1.26 2.481l-.06.885h-3.71Zm-.42 4.454c0-.648.22-1.183.66-1.604.44-.42 1-.631 1.69-.631.68 0 1.25.211 1.69.631.44.421.66.956.66 1.604 0 .638-.22 1.165-.65 1.581-.43.416-1 .624-1.7.624-.71 0-1.28-.208-1.71-.624-.43-.416-.64-.943-.64-1.581Z" transform="translate(-14164.303 -5709.1) scale(10.6198)" class="colorfff svgShape"/></svg>